M48
; DRILL file {KiCad 8.0.7-1.fc41} date 2024-12-31T22:09:17+0800
; FORMAT={-:-/ absolute / metric / decimal}
; #@! TF.CreationDate,2024-12-31T22:09:17+08:00
; #@! TF.GenerationSoftware,Kicad,Pcbnew,8.0.7-1.fc41
; #@! TF.FileFunction,Plated,1,2,PTH
FMAT,2
METRIC
; #@! TA.AperFunction,Plated,PTH,ViaDrill
T1C0.300
; #@! TA.AperFunction,Plated,PTH,ViaDrill
T2C0.400
; #@! TA.AperFunction,Plated,PTH,ComponentDrill
T3C1.000
%
G90
G05
T1
X116.637Y-69.775
X118.137Y-69.775
X118.3Y-71.919
X120.399Y-61.8
X120.64Y-66.2
X122.0Y-68.5
X122.0Y-69.2
X122.0Y-69.9
X122.7Y-68.5
X122.7Y-69.2
X122.7Y-69.9
X123.4Y-68.5
X123.4Y-69.2
X123.4Y-69.9
X129.25Y-74.75
X135.75Y-67.2
X137.35Y-67.2
T2
X113.3Y-67.6
X113.3Y-68.5
X113.3Y-69.4
X115.137Y-63.1
X115.137Y-64.6
X115.137Y-66.1
X115.7Y-67.6
X115.7Y-68.5
X115.7Y-69.4
X116.137Y-63.1
X116.137Y-64.6
X116.137Y-66.1
X117.637Y-66.099
X121.4Y-72.7
X121.4Y-74.45
X121.4Y-76.95
X121.4Y-79.45
X122.0Y-60.8
X122.0Y-62.7
X122.65Y-72.7
X122.65Y-74.45
X122.65Y-75.7
X122.65Y-76.95
X122.65Y-78.2
X122.65Y-79.45
X123.4Y-73.45
X123.5Y-60.8
X123.5Y-62.7
X124.15Y-72.7
X124.15Y-74.45
X124.15Y-75.7
X124.15Y-76.95
X124.15Y-78.2
X124.15Y-79.45
X125.0Y-60.8
X125.0Y-62.7
X125.4Y-72.7
X125.4Y-74.45
X125.4Y-75.7
X125.4Y-76.95
X125.4Y-78.2
X125.4Y-79.45
X126.5Y-60.8
X126.5Y-62.7
X128.0Y-60.8
X128.0Y-62.7
X129.5Y-60.8
X129.5Y-62.7
X131.0Y-60.8
X131.0Y-62.7
X132.5Y-60.8
X132.5Y-62.7
X134.0Y-60.8
X134.0Y-64.2
X134.0Y-65.7
X134.0Y-67.2
X134.0Y-68.7
T3
X112.0Y-62.5
X112.0Y-77.5
X138.0Y-62.5
X138.0Y-77.5
M30
