M48
; DRILL file {KiCad 8.0.6} date 2024-12-11T22:55:23+0800
; FORMAT={-:-/ absolute / metric / decimal}
; #@! TF.CreationDate,2024-12-11T22:55:23+08:00
; #@! TF.GenerationSoftware,Kicad,Pcbnew,8.0.6
; #@! TF.FileFunction,Plated,1,2,PTH
FMAT,2
METRIC
; #@! TA.AperFunction,Plated,PTH,ViaDrill
T1C0.300
; #@! TA.AperFunction,Plated,PTH,ComponentDrill
T2C1.000
%
G90
G05
T1
X111.1Y-66.4
X111.1Y-67.4
X111.9Y-66.4
X111.9Y-67.4
X112.7Y-66.4
X112.7Y-67.4
X113.3Y-68.4
X113.3Y-69.2
X113.3Y-70.0
X114.1Y-65.8
X114.1Y-66.6
X114.7Y-65.0
X114.7Y-67.4
X114.7Y-68.4
X114.7Y-69.4
X115.5Y-65.0
X115.5Y-67.4
X115.5Y-68.4
X115.5Y-69.4
X116.7Y-72.525
X119.0Y-64.0
X119.75Y-63.25
X120.0Y-62.25
X120.75Y-60.5
X120.75Y-61.5
X122.032Y-64.79
X122.65Y-68.5
X122.65Y-69.25
X122.65Y-70.0
X123.4Y-68.9
X123.4Y-69.75
X123.5Y-73.0
X123.5Y-74.0
X124.15Y-68.5
X124.15Y-69.25
X124.15Y-70.0
X124.5Y-73.0
X124.5Y-74.0
X124.5Y-75.5
X124.5Y-76.5
X124.5Y-77.5
X124.5Y-78.5
X124.5Y-79.5
X124.9Y-68.9
X124.9Y-69.75
X125.25Y-76.0
X125.25Y-78.0
X125.5Y-73.0
X125.5Y-74.0
X126.0Y-79.5
X126.5Y-73.0
X126.5Y-74.0
X126.75Y-76.0
X126.75Y-78.0
X127.5Y-73.0
X127.5Y-74.0
X127.5Y-75.5
X127.5Y-76.5
X127.5Y-77.5
X127.5Y-78.5
X127.5Y-79.5
X127.933Y-61.533
X133.6Y-73.5
T2
X112.0Y-62.0
X112.0Y-78.0
X116.0Y-62.0
X138.0Y-78.0
M30
