%TF.GenerationSoftware,KiCad,Pcbnew,8.0.7-1.fc41*%
%TF.CreationDate,2024-12-31T22:09:06+08:00*%
%TF.ProjectId,mp2236_power_driver,6d703232-3336-45f7-906f-7765725f6472,rev?*%
%TF.SameCoordinates,Original*%
%TF.FileFunction,Legend,Top*%
%TF.FilePolarity,Positive*%
%FSLAX46Y46*%
G04 Gerber Fmt 4.6, Leading zero omitted, Abs format (unit mm)*
G04 Created by KiCad (PCBNEW 8.0.7-1.fc41) date 2024-12-31 22:09:06*
%MOMM*%
%LPD*%
G01*
G04 APERTURE LIST*
%ADD10C,0.150000*%
%ADD11C,0.120000*%
%ADD12C,0.200000*%
G04 APERTURE END LIST*
D10*
X137791541Y-65581795D02*
X137943922Y-65581795D01*
X137943922Y-65581795D02*
X138020112Y-65619890D01*
X138020112Y-65619890D02*
X138096303Y-65696080D01*
X138096303Y-65696080D02*
X138134398Y-65848461D01*
X138134398Y-65848461D02*
X138134398Y-66115128D01*
X138134398Y-66115128D02*
X138096303Y-66267509D01*
X138096303Y-66267509D02*
X138020112Y-66343700D01*
X138020112Y-66343700D02*
X137943922Y-66381795D01*
X137943922Y-66381795D02*
X137791541Y-66381795D01*
X137791541Y-66381795D02*
X137715350Y-66343700D01*
X137715350Y-66343700D02*
X137639160Y-66267509D01*
X137639160Y-66267509D02*
X137601064Y-66115128D01*
X137601064Y-66115128D02*
X137601064Y-65848461D01*
X137601064Y-65848461D02*
X137639160Y-65696080D01*
X137639160Y-65696080D02*
X137715350Y-65619890D01*
X137715350Y-65619890D02*
X137791541Y-65581795D01*
X138477255Y-66381795D02*
X138477255Y-65581795D01*
X138477255Y-65581795D02*
X138934398Y-66381795D01*
X138934398Y-66381795D02*
X138934398Y-65581795D01*
D11*
%TO.C,R3*%
X119011250Y-62387742D02*
X119011250Y-62862258D01*
X120056250Y-62387742D02*
X120056250Y-62862258D01*
%TO.C,L1*%
X126600000Y-65300000D02*
X126600000Y-72700000D01*
X126600000Y-65300000D02*
X128100000Y-65300000D01*
X126600000Y-72700000D02*
X128100000Y-72700000D01*
X133400000Y-65300000D02*
X131900000Y-65300000D01*
X133400000Y-72700000D02*
X131900000Y-72700000D01*
X133400000Y-72700000D02*
X133400000Y-65300000D01*
%TO.C,C6*%
X127461252Y-74065000D02*
X126938748Y-74065000D01*
X127461252Y-75535000D02*
X126938748Y-75535000D01*
%TO.C,R4*%
X118225242Y-64677500D02*
X118699758Y-64677500D01*
X118225242Y-65722500D02*
X118699758Y-65722500D01*
%TO.C,C7*%
X127461252Y-76065000D02*
X126938748Y-76065000D01*
X127461252Y-77535000D02*
X126938748Y-77535000D01*
%TO.C,C5*%
X124890000Y-67459420D02*
X124890000Y-67740580D01*
X125910000Y-67459420D02*
X125910000Y-67740580D01*
%TO.C,C3*%
X120459420Y-73090000D02*
X120740580Y-73090000D01*
X120459420Y-74110000D02*
X120740580Y-74110000D01*
%TO.C,C8*%
X127461252Y-78065000D02*
X126938748Y-78065000D01*
X127461252Y-79535000D02*
X126938748Y-79535000D01*
%TO.C,C9*%
X117131250Y-62484420D02*
X117131250Y-62765580D01*
X118151250Y-62484420D02*
X118151250Y-62765580D01*
%TO.C,R6*%
X136027500Y-71487258D02*
X136027500Y-71012742D01*
X137072500Y-71487258D02*
X137072500Y-71012742D01*
%TO.C,LED1*%
X135750000Y-66987500D02*
X135450000Y-66987500D01*
X135450000Y-67587500D01*
X135750000Y-67587500D01*
X135750000Y-66987500D01*
G36*
X135750000Y-66987500D02*
G01*
X135450000Y-66987500D01*
X135450000Y-67587500D01*
X135750000Y-67587500D01*
X135750000Y-66987500D01*
G37*
X137350000Y-66487500D02*
X135750000Y-66487500D01*
X135750000Y-69487500D01*
X137350000Y-69487500D01*
X137350000Y-66487500D01*
X137650000Y-66987500D02*
X137350000Y-66987500D01*
X137350000Y-67587500D01*
X137650000Y-67587500D01*
X137650000Y-66987500D01*
G36*
X137650000Y-66987500D02*
G01*
X137350000Y-66987500D01*
X137350000Y-67587500D01*
X137650000Y-67587500D01*
X137650000Y-66987500D01*
G37*
%TO.C,C4*%
X116877500Y-69140580D02*
X116877500Y-68859420D01*
X117897500Y-69140580D02*
X117897500Y-68859420D01*
%TO.C,R2*%
X124362742Y-64677500D02*
X124837258Y-64677500D01*
X124362742Y-65722500D02*
X124837258Y-65722500D01*
%TO.C,U1*%
X118700000Y-66300000D02*
X118700000Y-70100000D01*
X119300000Y-70700000D02*
X122300000Y-70700000D01*
X122300000Y-66300000D02*
X118700000Y-66300000D01*
X122300000Y-70700000D02*
X122300000Y-66300000D01*
D12*
X118963500Y-70500000D02*
G75*
G02*
X118836500Y-70500000I-63500J0D01*
G01*
X118836500Y-70500000D02*
G75*
G02*
X118963500Y-70500000I63500J0D01*
G01*
D11*
%TO.C,D1*%
X112850000Y-74010000D02*
X112850000Y-68500000D01*
X112850000Y-74010000D02*
X116150000Y-74010000D01*
X116150000Y-74010000D02*
X116150000Y-68500000D01*
%TO.C,C1*%
X119538748Y-77290000D02*
X120961252Y-77290000D01*
X119538748Y-79110000D02*
X120961252Y-79110000D01*
%TO.C,R1*%
X116887500Y-72981008D02*
X116887500Y-72506492D01*
X117932500Y-72981008D02*
X117932500Y-72506492D01*
%TO.C,C2*%
X119538748Y-74790000D02*
X120961252Y-74790000D01*
X119538748Y-76610000D02*
X120961252Y-76610000D01*
%TO.C,R5*%
X121477500Y-64512258D02*
X121477500Y-64037742D01*
X122522500Y-64512258D02*
X122522500Y-64037742D01*
%TD*%
M02*
