%TF.GenerationSoftware,KiCad,Pcbnew,8.0.7-1.fc41*%
%TF.CreationDate,2024-12-31T22:09:06+08:00*%
%TF.ProjectId,mp2236_power_driver,6d703232-3336-45f7-906f-7765725f6472,rev?*%
%TF.SameCoordinates,Original*%
%TF.FileFunction,Legend,Bot*%
%TF.FilePolarity,Positive*%
%FSLAX46Y46*%
G04 Gerber Fmt 4.6, Leading zero omitted, Abs format (unit mm)*
G04 Created by KiCad (PCBNEW 8.0.7-1.fc41) date 2024-12-31 22:09:06*
%MOMM*%
%LPD*%
G01*
G04 APERTURE LIST*
%ADD10C,0.150000*%
G04 APERTURE END LIST*
D10*
G36*
X127309269Y-70479077D02*
G01*
X127339676Y-70509484D01*
X127378169Y-70586471D01*
X127421553Y-70760005D01*
X127421553Y-70979632D01*
X127378169Y-71153166D01*
X127339675Y-71230153D01*
X127309268Y-71260561D01*
X127240753Y-71294819D01*
X127180925Y-71294819D01*
X127112409Y-71260561D01*
X127082002Y-71230153D01*
X127043508Y-71153166D01*
X127000125Y-70979632D01*
X127000125Y-70760005D01*
X127043508Y-70586471D01*
X127082002Y-70509484D01*
X127112409Y-70479077D01*
X127180925Y-70444819D01*
X127240753Y-70444819D01*
X127309269Y-70479077D01*
G37*
G36*
X133088220Y-71294819D02*
G01*
X132937295Y-71294819D01*
X132822782Y-71256648D01*
X132748669Y-71182534D01*
X132710175Y-71105547D01*
X132666792Y-70932013D01*
X132666792Y-70807624D01*
X132710175Y-70634090D01*
X132748669Y-70557103D01*
X132822782Y-70482990D01*
X132937295Y-70444819D01*
X133088220Y-70444819D01*
X133088220Y-71294819D01*
G37*
G36*
X132106782Y-71009104D02*
G01*
X131838706Y-71009104D01*
X131972744Y-70606989D01*
X132106782Y-71009104D01*
G37*
G36*
X128833079Y-68869133D02*
G01*
X128905021Y-68941075D01*
X128945363Y-69102442D01*
X128945363Y-69417307D01*
X128905021Y-69578673D01*
X128833078Y-69650617D01*
X128764563Y-69684875D01*
X128609497Y-69684875D01*
X128540981Y-69650617D01*
X128469038Y-69578673D01*
X128428697Y-69417307D01*
X128428697Y-69102442D01*
X128469038Y-68941075D01*
X128540981Y-68869133D01*
X128609497Y-68834875D01*
X128764563Y-68834875D01*
X128833079Y-68869133D01*
G37*
G36*
X131326315Y-69208684D02*
G01*
X131038068Y-69208684D01*
X130969552Y-69174426D01*
X130939145Y-69144019D01*
X130904887Y-69075503D01*
X130904887Y-68968056D01*
X130939145Y-68899540D01*
X130969552Y-68869133D01*
X131038068Y-68834875D01*
X131326315Y-68834875D01*
X131326315Y-69208684D01*
G37*
G36*
X119421553Y-68074931D02*
G01*
X119270628Y-68074931D01*
X119156115Y-68036760D01*
X119082002Y-67962646D01*
X119043508Y-67885659D01*
X119000125Y-67712125D01*
X119000125Y-67587736D01*
X119043508Y-67414202D01*
X119082002Y-67337215D01*
X119156115Y-67263102D01*
X119270628Y-67224931D01*
X119421553Y-67224931D01*
X119421553Y-68074931D01*
G37*
G36*
X120404507Y-67259189D02*
G01*
X120476449Y-67331131D01*
X120516791Y-67492498D01*
X120516791Y-67807363D01*
X120476449Y-67968729D01*
X120404506Y-68040673D01*
X120335991Y-68074931D01*
X120180925Y-68074931D01*
X120112409Y-68040673D01*
X120040466Y-67968729D01*
X120000125Y-67807363D01*
X120000125Y-67492498D01*
X120040466Y-67331131D01*
X120112409Y-67259189D01*
X120180925Y-67224931D01*
X120335991Y-67224931D01*
X120404507Y-67259189D01*
G37*
G36*
X124373934Y-68074931D02*
G01*
X124223009Y-68074931D01*
X124108496Y-68036760D01*
X124034383Y-67962646D01*
X123995889Y-67885659D01*
X123952506Y-67712125D01*
X123952506Y-67587736D01*
X123995889Y-67414202D01*
X124034383Y-67337215D01*
X124108496Y-67263102D01*
X124223009Y-67224931D01*
X124373934Y-67224931D01*
X124373934Y-68074931D01*
G37*
G36*
X126373934Y-68074931D02*
G01*
X126223009Y-68074931D01*
X126108496Y-68036760D01*
X126034383Y-67962646D01*
X125995889Y-67885659D01*
X125952506Y-67712125D01*
X125952506Y-67587736D01*
X125995889Y-67414202D01*
X126034383Y-67337215D01*
X126108496Y-67263102D01*
X126223009Y-67224931D01*
X126373934Y-67224931D01*
X126373934Y-68074931D01*
G37*
G36*
X128071174Y-67640141D02*
G01*
X128101581Y-67670548D01*
X128135839Y-67739064D01*
X128135839Y-67941749D01*
X128101580Y-68010265D01*
X128071173Y-68040673D01*
X128002658Y-68074931D01*
X127847592Y-68074931D01*
X127779076Y-68040673D01*
X127748669Y-68010265D01*
X127714411Y-67941749D01*
X127714411Y-67739064D01*
X127748669Y-67670548D01*
X127779076Y-67640141D01*
X127847592Y-67605883D01*
X128002658Y-67605883D01*
X128071174Y-67640141D01*
G37*
G36*
X131945363Y-67598740D02*
G01*
X131657116Y-67598740D01*
X131588600Y-67564482D01*
X131558193Y-67534075D01*
X131523935Y-67465559D01*
X131523935Y-67358112D01*
X131558193Y-67289596D01*
X131588600Y-67259189D01*
X131657116Y-67224931D01*
X131945363Y-67224931D01*
X131945363Y-67598740D01*
G37*
G36*
X133491599Y-71555930D02*
G01*
X115978550Y-71555930D01*
X115978550Y-70560295D01*
X118659649Y-70560295D01*
X118659649Y-70655533D01*
X118660378Y-70662938D01*
X118660238Y-70664913D01*
X118660828Y-70667510D01*
X118661090Y-70670165D01*
X118661848Y-70671996D01*
X118663498Y-70679250D01*
X118711117Y-70822107D01*
X118717111Y-70835532D01*
X118718876Y-70837567D01*
X118719908Y-70840058D01*
X118729235Y-70851423D01*
X119172630Y-71294819D01*
X118734649Y-71294819D01*
X118720017Y-71296260D01*
X118692981Y-71307459D01*
X118672289Y-71328151D01*
X118661090Y-71355187D01*
X118661090Y-71384451D01*
X118672289Y-71411487D01*
X118692981Y-71432179D01*
X118720017Y-71443378D01*
X118734649Y-71444819D01*
X119353696Y-71444819D01*
X119368328Y-71443378D01*
X119376246Y-71440098D01*
X119395364Y-71432180D01*
X119416056Y-71411487D01*
X119427255Y-71384451D01*
X119427255Y-71355188D01*
X119416057Y-71328151D01*
X119406729Y-71316786D01*
X118847820Y-70757876D01*
X118809649Y-70643362D01*
X118809649Y-70578000D01*
X118818502Y-70560295D01*
X119612030Y-70560295D01*
X119612030Y-70655533D01*
X119612759Y-70662938D01*
X119612619Y-70664913D01*
X119613209Y-70667510D01*
X119613471Y-70670165D01*
X119614229Y-70671996D01*
X119615879Y-70679250D01*
X119663498Y-70822107D01*
X119669492Y-70835532D01*
X119671257Y-70837567D01*
X119672289Y-70840058D01*
X119681616Y-70851423D01*
X120125011Y-71294819D01*
X119687030Y-71294819D01*
X119672398Y-71296260D01*
X119645362Y-71307459D01*
X119624670Y-71328151D01*
X119613471Y-71355187D01*
X119613471Y-71384451D01*
X119624670Y-71411487D01*
X119645362Y-71432179D01*
X119672398Y-71443378D01*
X119687030Y-71444819D01*
X120306077Y-71444819D01*
X120320709Y-71443378D01*
X120328627Y-71440098D01*
X120347745Y-71432180D01*
X120368437Y-71411487D01*
X120379636Y-71384451D01*
X120379636Y-71355188D01*
X120368438Y-71328151D01*
X120359110Y-71316786D01*
X120016559Y-70974234D01*
X120613471Y-70974234D01*
X120613471Y-71003498D01*
X120624670Y-71030534D01*
X120645362Y-71051226D01*
X120672398Y-71062425D01*
X120687030Y-71063866D01*
X121448934Y-71063866D01*
X121463566Y-71062425D01*
X121490602Y-71051226D01*
X121511294Y-71030534D01*
X121522493Y-71003498D01*
X121522493Y-70974234D01*
X121511294Y-70947198D01*
X121490602Y-70926506D01*
X121463566Y-70915307D01*
X121448934Y-70913866D01*
X120687030Y-70913866D01*
X120672398Y-70915307D01*
X120645362Y-70926506D01*
X120624670Y-70947198D01*
X120613471Y-70974234D01*
X120016559Y-70974234D01*
X119800201Y-70757876D01*
X119762030Y-70643362D01*
X119762030Y-70578000D01*
X119770883Y-70560295D01*
X121802506Y-70560295D01*
X121802506Y-70655533D01*
X121803235Y-70662938D01*
X121803095Y-70664913D01*
X121803685Y-70667510D01*
X121803947Y-70670165D01*
X121804705Y-70671996D01*
X121806355Y-70679250D01*
X121853974Y-70822107D01*
X121859968Y-70835532D01*
X121861733Y-70837567D01*
X121862765Y-70840058D01*
X121872092Y-70851423D01*
X122315487Y-71294819D01*
X121877506Y-71294819D01*
X121862874Y-71296260D01*
X121835838Y-71307459D01*
X121815146Y-71328151D01*
X121803947Y-71355187D01*
X121803947Y-71384451D01*
X121815146Y-71411487D01*
X121835838Y-71432179D01*
X121862874Y-71443378D01*
X121877506Y-71444819D01*
X122496553Y-71444819D01*
X122511185Y-71443378D01*
X122519103Y-71440098D01*
X122538221Y-71432180D01*
X122558913Y-71411487D01*
X122570112Y-71384451D01*
X122570112Y-71355188D01*
X122570112Y-71355187D01*
X122756328Y-71355187D01*
X122756328Y-71384451D01*
X122767527Y-71411487D01*
X122788219Y-71432179D01*
X122815255Y-71443378D01*
X122829887Y-71444819D01*
X123401315Y-71444819D01*
X123415947Y-71443378D01*
X123442983Y-71432179D01*
X123463675Y-71411487D01*
X123474874Y-71384451D01*
X123474874Y-71355187D01*
X123463675Y-71328151D01*
X123442983Y-71307459D01*
X123415947Y-71296260D01*
X123401315Y-71294819D01*
X123190601Y-71294819D01*
X123190601Y-70974234D01*
X123756328Y-70974234D01*
X123756328Y-71003498D01*
X123767527Y-71030534D01*
X123788219Y-71051226D01*
X123815255Y-71062425D01*
X123829887Y-71063866D01*
X124591791Y-71063866D01*
X124606423Y-71062425D01*
X124633459Y-71051226D01*
X124654151Y-71030534D01*
X124657747Y-71021853D01*
X124899185Y-71021853D01*
X124899185Y-71051117D01*
X124910384Y-71078153D01*
X124931076Y-71098845D01*
X124958112Y-71110044D01*
X124972744Y-71111485D01*
X125040601Y-71111485D01*
X125040601Y-71369819D01*
X125042042Y-71384451D01*
X125053241Y-71411487D01*
X125073933Y-71432179D01*
X125100969Y-71443378D01*
X125130233Y-71443378D01*
X125157269Y-71432179D01*
X125177961Y-71411487D01*
X125189160Y-71384451D01*
X125190601Y-71369819D01*
X125190601Y-71111485D01*
X125591791Y-71111485D01*
X125599196Y-71110755D01*
X125601171Y-71110896D01*
X125602596Y-71110420D01*
X125606423Y-71110044D01*
X125617532Y-71105442D01*
X125628933Y-71101642D01*
X125630968Y-71099876D01*
X125633459Y-71098845D01*
X125641961Y-71090342D01*
X125651041Y-71082468D01*
X125652245Y-71080058D01*
X125654151Y-71078153D01*
X125658753Y-71067041D01*
X125664127Y-71056294D01*
X125664317Y-71053608D01*
X125665350Y-71051117D01*
X125665350Y-71039089D01*
X125666202Y-71027104D01*
X125665350Y-71023357D01*
X125665350Y-71021853D01*
X125664591Y-71020022D01*
X125662942Y-71012767D01*
X125512118Y-70560295D01*
X125897744Y-70560295D01*
X125897744Y-70655533D01*
X125898473Y-70662938D01*
X125898333Y-70664913D01*
X125898923Y-70667510D01*
X125899185Y-70670165D01*
X125899943Y-70671996D01*
X125901593Y-70679250D01*
X125949212Y-70822107D01*
X125955206Y-70835532D01*
X125956971Y-70837567D01*
X125958003Y-70840058D01*
X125967330Y-70851423D01*
X126410725Y-71294819D01*
X125972744Y-71294819D01*
X125958112Y-71296260D01*
X125931076Y-71307459D01*
X125910384Y-71328151D01*
X125899185Y-71355187D01*
X125899185Y-71384451D01*
X125910384Y-71411487D01*
X125931076Y-71432179D01*
X125958112Y-71443378D01*
X125972744Y-71444819D01*
X126591791Y-71444819D01*
X126606423Y-71443378D01*
X126614341Y-71440098D01*
X126633459Y-71432180D01*
X126654151Y-71411487D01*
X126665350Y-71384451D01*
X126665350Y-71355188D01*
X126654152Y-71328151D01*
X126644824Y-71316786D01*
X126085915Y-70757876D01*
X126083547Y-70750771D01*
X126850125Y-70750771D01*
X126850125Y-70988866D01*
X126850376Y-70991419D01*
X126850214Y-70992512D01*
X126851023Y-70997985D01*
X126851566Y-71003498D01*
X126851988Y-71004519D01*
X126852364Y-71007056D01*
X126899983Y-71197532D01*
X126900368Y-71198611D01*
X126900407Y-71199151D01*
X126902734Y-71205232D01*
X126904930Y-71211378D01*
X126905252Y-71211813D01*
X126905662Y-71212883D01*
X126953281Y-71308121D01*
X126957244Y-71314417D01*
X126958002Y-71316247D01*
X126959691Y-71318305D01*
X126961113Y-71320564D01*
X126962611Y-71321863D01*
X126967329Y-71327612D01*
X127014948Y-71375232D01*
X127020697Y-71379950D01*
X127021998Y-71381450D01*
X127024257Y-71382872D01*
X127026314Y-71384560D01*
X127028141Y-71385317D01*
X127034441Y-71389282D01*
X127129679Y-71436901D01*
X127143410Y-71442156D01*
X127146099Y-71442347D01*
X127148588Y-71443378D01*
X127163220Y-71444819D01*
X127258458Y-71444819D01*
X127273090Y-71443378D01*
X127275579Y-71442346D01*
X127278267Y-71442156D01*
X127291999Y-71436901D01*
X127387237Y-71389282D01*
X127393536Y-71385317D01*
X127395364Y-71384560D01*
X127397420Y-71382872D01*
X127399680Y-71381450D01*
X127400980Y-71379950D01*
X127406730Y-71375232D01*
X127454348Y-71327613D01*
X127459066Y-71321863D01*
X127460565Y-71320564D01*
X127461986Y-71318305D01*
X127463676Y-71316247D01*
X127464433Y-71314417D01*
X127468397Y-71308121D01*
X127516016Y-71212883D01*
X127516425Y-71211813D01*
X127516748Y-71211378D01*
X127518940Y-71205241D01*
X127521271Y-71199152D01*
X127521309Y-71198611D01*
X127521695Y-71197532D01*
X127569314Y-71007056D01*
X127569689Y-71004519D01*
X127570112Y-71003498D01*
X127570654Y-70997985D01*
X127571464Y-70992512D01*
X127571301Y-70991419D01*
X127571553Y-70988866D01*
X127571553Y-70750771D01*
X127571301Y-70748217D01*
X127571464Y-70747125D01*
X127570654Y-70741651D01*
X127570112Y-70736139D01*
X127569689Y-70735117D01*
X127569314Y-70732581D01*
X127526242Y-70560295D01*
X127802506Y-70560295D01*
X127802506Y-70655533D01*
X127803235Y-70662938D01*
X127803095Y-70664913D01*
X127803685Y-70667510D01*
X127803947Y-70670165D01*
X127804705Y-70671996D01*
X127806355Y-70679250D01*
X127853974Y-70822107D01*
X127859968Y-70835532D01*
X127861733Y-70837567D01*
X127862765Y-70840058D01*
X127872092Y-70851423D01*
X128315487Y-71294819D01*
X127877506Y-71294819D01*
X127862874Y-71296260D01*
X127835838Y-71307459D01*
X127815146Y-71328151D01*
X127803947Y-71355187D01*
X127803947Y-71384451D01*
X127815146Y-71411487D01*
X127835838Y-71432179D01*
X127862874Y-71443378D01*
X127877506Y-71444819D01*
X128496553Y-71444819D01*
X128511185Y-71443378D01*
X128519103Y-71440098D01*
X128538221Y-71432180D01*
X128558913Y-71411487D01*
X128570112Y-71384451D01*
X128570112Y-71355188D01*
X128558914Y-71328151D01*
X128549586Y-71316786D01*
X128540369Y-71307569D01*
X129518232Y-71307569D01*
X129518232Y-71336832D01*
X129523269Y-71348991D01*
X129529431Y-71363868D01*
X129538758Y-71375233D01*
X129586377Y-71422852D01*
X129597742Y-71432179D01*
X129624778Y-71443378D01*
X129624779Y-71443378D01*
X129654041Y-71443378D01*
X129654042Y-71443378D01*
X129681078Y-71432179D01*
X129692443Y-71422852D01*
X129740062Y-71375233D01*
X129749389Y-71363868D01*
X129760588Y-71336832D01*
X129760588Y-71307569D01*
X129759384Y-71304662D01*
X129749390Y-71280533D01*
X129740062Y-71269167D01*
X129692444Y-71221548D01*
X129681078Y-71212220D01*
X129681077Y-71212219D01*
X129662781Y-71204641D01*
X129654042Y-71201021D01*
X129654041Y-71201021D01*
X129624778Y-71201021D01*
X129616039Y-71204641D01*
X129597743Y-71212219D01*
X129597742Y-71212220D01*
X129586376Y-71221548D01*
X129538757Y-71269168D01*
X129529430Y-71280533D01*
X129518232Y-71307569D01*
X128540369Y-71307569D01*
X128016560Y-70783759D01*
X129518232Y-70783759D01*
X129518232Y-70813021D01*
X129529431Y-70840058D01*
X129538758Y-70851423D01*
X129586377Y-70899042D01*
X129597742Y-70908369D01*
X129624778Y-70919568D01*
X129624779Y-70919568D01*
X129654041Y-70919568D01*
X129654042Y-70919568D01*
X129681078Y-70908369D01*
X129692443Y-70899042D01*
X129740062Y-70851423D01*
X129749389Y-70840058D01*
X129760588Y-70813022D01*
X129760588Y-70783759D01*
X129760543Y-70783649D01*
X129749389Y-70756722D01*
X129740062Y-70745357D01*
X129692443Y-70697738D01*
X129681078Y-70688411D01*
X129654042Y-70677212D01*
X129654041Y-70677212D01*
X129624778Y-70677212D01*
X129597742Y-70688411D01*
X129586377Y-70697738D01*
X129538758Y-70745357D01*
X129529431Y-70756722D01*
X129518232Y-70783759D01*
X128016560Y-70783759D01*
X127990677Y-70757876D01*
X127952506Y-70643362D01*
X127952506Y-70578000D01*
X127986764Y-70509484D01*
X128017171Y-70479077D01*
X128085687Y-70444819D01*
X128288372Y-70444819D01*
X128356888Y-70479077D01*
X128395901Y-70518090D01*
X128407266Y-70527417D01*
X128434302Y-70538616D01*
X128463565Y-70538616D01*
X128490601Y-70527417D01*
X128511294Y-70506724D01*
X128522493Y-70479688D01*
X128522493Y-70450425D01*
X128511294Y-70423389D01*
X128501967Y-70412024D01*
X128454348Y-70364405D01*
X128448598Y-70359686D01*
X128447299Y-70358188D01*
X128445039Y-70356766D01*
X128443116Y-70355187D01*
X129994423Y-70355187D01*
X129994423Y-70384451D01*
X130005622Y-70411487D01*
X130026314Y-70432179D01*
X130053350Y-70443378D01*
X130067982Y-70444819D01*
X130469172Y-70444819D01*
X130469172Y-70771009D01*
X130210839Y-70771009D01*
X130196207Y-70772450D01*
X130169171Y-70783649D01*
X130148479Y-70804341D01*
X130137280Y-70831377D01*
X130137280Y-70860641D01*
X130148479Y-70887677D01*
X130169171Y-70908369D01*
X130196207Y-70919568D01*
X130210839Y-70921009D01*
X130469172Y-70921009D01*
X130469172Y-71294819D01*
X130067982Y-71294819D01*
X130053350Y-71296260D01*
X130026314Y-71307459D01*
X130005622Y-71328151D01*
X129994423Y-71355187D01*
X129994423Y-71384451D01*
X130005622Y-71411487D01*
X130026314Y-71432179D01*
X130053350Y-71443378D01*
X130067982Y-71444819D01*
X130544172Y-71444819D01*
X130558804Y-71443378D01*
X130585840Y-71432179D01*
X130606532Y-71411487D01*
X130617731Y-71384451D01*
X130617731Y-71384450D01*
X130619172Y-71369819D01*
X130619172Y-70369819D01*
X130617731Y-70355187D01*
X130803947Y-70355187D01*
X130803947Y-70384451D01*
X130815146Y-70411487D01*
X130835838Y-70432179D01*
X130862874Y-70443378D01*
X130877506Y-70444819D01*
X131088220Y-70444819D01*
X131088220Y-71369819D01*
X131089661Y-71384451D01*
X131100860Y-71411487D01*
X131121552Y-71432179D01*
X131148588Y-71443378D01*
X131177852Y-71443378D01*
X131204888Y-71432179D01*
X131225580Y-71411487D01*
X131236779Y-71384451D01*
X131238220Y-71369819D01*
X131238220Y-71360439D01*
X131565000Y-71360439D01*
X131567075Y-71389629D01*
X131580161Y-71415802D01*
X131602268Y-71434976D01*
X131630031Y-71444230D01*
X131659221Y-71442155D01*
X131685394Y-71429069D01*
X131704568Y-71406962D01*
X131710562Y-71393536D01*
X131788706Y-71159104D01*
X132156782Y-71159104D01*
X132234926Y-71393536D01*
X132240920Y-71406961D01*
X132260094Y-71429068D01*
X132286267Y-71442155D01*
X132315457Y-71444230D01*
X132343219Y-71434976D01*
X132365327Y-71415802D01*
X132378413Y-71389628D01*
X132380488Y-71360438D01*
X132377228Y-71346102D01*
X132194658Y-70798390D01*
X132516792Y-70798390D01*
X132516792Y-70941247D01*
X132517043Y-70943800D01*
X132516881Y-70944893D01*
X132517690Y-70950366D01*
X132518233Y-70955879D01*
X132518655Y-70956900D01*
X132519031Y-70959437D01*
X132566650Y-71149913D01*
X132567035Y-71150992D01*
X132567074Y-71151532D01*
X132569401Y-71157613D01*
X132571597Y-71163759D01*
X132571919Y-71164194D01*
X132572329Y-71165264D01*
X132619948Y-71260502D01*
X132623911Y-71266798D01*
X132624669Y-71268628D01*
X132626358Y-71270686D01*
X132627780Y-71272945D01*
X132629278Y-71274244D01*
X132633997Y-71279994D01*
X132729235Y-71375233D01*
X132740600Y-71384561D01*
X132743090Y-71385592D01*
X132745125Y-71387357D01*
X132758551Y-71393351D01*
X132901407Y-71440970D01*
X132908662Y-71442619D01*
X132910493Y-71443378D01*
X132913146Y-71443639D01*
X132915744Y-71444230D01*
X132917718Y-71444089D01*
X132925125Y-71444819D01*
X133163220Y-71444819D01*
X133177852Y-71443378D01*
X133204888Y-71432179D01*
X133225580Y-71411487D01*
X133236779Y-71384451D01*
X133236779Y-71384450D01*
X133238220Y-71369819D01*
X133238220Y-70369819D01*
X133236779Y-70355187D01*
X133225580Y-70328151D01*
X133204888Y-70307459D01*
X133177852Y-70296260D01*
X133163220Y-70294819D01*
X132925125Y-70294819D01*
X132917718Y-70295548D01*
X132915744Y-70295408D01*
X132913146Y-70295998D01*
X132910493Y-70296260D01*
X132908662Y-70297018D01*
X132901407Y-70298668D01*
X132758551Y-70346287D01*
X132745125Y-70352281D01*
X132743090Y-70354045D01*
X132740600Y-70355077D01*
X132729235Y-70364405D01*
X132633997Y-70459643D01*
X132629278Y-70465392D01*
X132627780Y-70466692D01*
X132626358Y-70468951D01*
X132624670Y-70471008D01*
X132623912Y-70472835D01*
X132619948Y-70479135D01*
X132572329Y-70574373D01*
X132571919Y-70575442D01*
X132571597Y-70575878D01*
X132569411Y-70581997D01*
X132567074Y-70588105D01*
X132567035Y-70588644D01*
X132566650Y-70589724D01*
X132519031Y-70780200D01*
X132518655Y-70782736D01*
X132518233Y-70783758D01*
X132517690Y-70789270D01*
X132516881Y-70794744D01*
X132517043Y-70795836D01*
X132516792Y-70798390D01*
X132194658Y-70798390D01*
X132043895Y-70346102D01*
X132037901Y-70332676D01*
X132034389Y-70328627D01*
X132031994Y-70323836D01*
X132024890Y-70317674D01*
X132018727Y-70310569D01*
X132013933Y-70308172D01*
X132009886Y-70304662D01*
X132000964Y-70301688D01*
X131992554Y-70297483D01*
X131987209Y-70297103D01*
X131982124Y-70295408D01*
X131972744Y-70296074D01*
X131963364Y-70295408D01*
X131958278Y-70297103D01*
X131952934Y-70297483D01*
X131944526Y-70301687D01*
X131935601Y-70304662D01*
X131931550Y-70308175D01*
X131926761Y-70310570D01*
X131920602Y-70317670D01*
X131913494Y-70323836D01*
X131911097Y-70328629D01*
X131907587Y-70332677D01*
X131901593Y-70346102D01*
X131568260Y-71346102D01*
X131565000Y-71360439D01*
X131238220Y-71360439D01*
X131238220Y-70444819D01*
X131448934Y-70444819D01*
X131463566Y-70443378D01*
X131490602Y-70432179D01*
X131511294Y-70411487D01*
X131522493Y-70384451D01*
X131522493Y-70355187D01*
X131511294Y-70328151D01*
X131490602Y-70307459D01*
X131463566Y-70296260D01*
X131448934Y-70294819D01*
X130877506Y-70294819D01*
X130862874Y-70296260D01*
X130835838Y-70307459D01*
X130815146Y-70328151D01*
X130803947Y-70355187D01*
X130617731Y-70355187D01*
X130606532Y-70328151D01*
X130585840Y-70307459D01*
X130558804Y-70296260D01*
X130544172Y-70294819D01*
X130067982Y-70294819D01*
X130053350Y-70296260D01*
X130026314Y-70307459D01*
X130005622Y-70328151D01*
X129994423Y-70355187D01*
X128443116Y-70355187D01*
X128442983Y-70355078D01*
X128441155Y-70354320D01*
X128434856Y-70350356D01*
X128339618Y-70302737D01*
X128325886Y-70297482D01*
X128323198Y-70297291D01*
X128320709Y-70296260D01*
X128306077Y-70294819D01*
X128067982Y-70294819D01*
X128053350Y-70296260D01*
X128050861Y-70297290D01*
X128048172Y-70297482D01*
X128034441Y-70302737D01*
X127939203Y-70350356D01*
X127932903Y-70354320D01*
X127931076Y-70355078D01*
X127929019Y-70356766D01*
X127926760Y-70358188D01*
X127925460Y-70359686D01*
X127919711Y-70364405D01*
X127872092Y-70412024D01*
X127867373Y-70417773D01*
X127865875Y-70419073D01*
X127864453Y-70421332D01*
X127862765Y-70423389D01*
X127862007Y-70425216D01*
X127858043Y-70431516D01*
X127810424Y-70526754D01*
X127805169Y-70540486D01*
X127804978Y-70543173D01*
X127803947Y-70545663D01*
X127802506Y-70560295D01*
X127526242Y-70560295D01*
X127521695Y-70542105D01*
X127521309Y-70541025D01*
X127521271Y-70540485D01*
X127518940Y-70534395D01*
X127516748Y-70528259D01*
X127516425Y-70527823D01*
X127516016Y-70526754D01*
X127468397Y-70431516D01*
X127464432Y-70425216D01*
X127463675Y-70423389D01*
X127461986Y-70421332D01*
X127460565Y-70419073D01*
X127459066Y-70417773D01*
X127454348Y-70412024D01*
X127406729Y-70364405D01*
X127400979Y-70359686D01*
X127399680Y-70358188D01*
X127397420Y-70356766D01*
X127395364Y-70355078D01*
X127393536Y-70354320D01*
X127387237Y-70350356D01*
X127291999Y-70302737D01*
X127278267Y-70297482D01*
X127275579Y-70297291D01*
X127273090Y-70296260D01*
X127258458Y-70294819D01*
X127163220Y-70294819D01*
X127148588Y-70296260D01*
X127146099Y-70297290D01*
X127143410Y-70297482D01*
X127129679Y-70302737D01*
X127034441Y-70350356D01*
X127028141Y-70354320D01*
X127026314Y-70355078D01*
X127024257Y-70356766D01*
X127021998Y-70358188D01*
X127020698Y-70359686D01*
X127014949Y-70364405D01*
X126967330Y-70412024D01*
X126962611Y-70417773D01*
X126961113Y-70419073D01*
X126959691Y-70421332D01*
X126958003Y-70423389D01*
X126957245Y-70425216D01*
X126953281Y-70431516D01*
X126905662Y-70526754D01*
X126905252Y-70527823D01*
X126904930Y-70528259D01*
X126902734Y-70534404D01*
X126900407Y-70540486D01*
X126900368Y-70541025D01*
X126899983Y-70542105D01*
X126852364Y-70732581D01*
X126851988Y-70735117D01*
X126851566Y-70736139D01*
X126851023Y-70741651D01*
X126850214Y-70747125D01*
X126850376Y-70748217D01*
X126850125Y-70750771D01*
X126083547Y-70750771D01*
X126047744Y-70643362D01*
X126047744Y-70578000D01*
X126082002Y-70509484D01*
X126112409Y-70479077D01*
X126180925Y-70444819D01*
X126383610Y-70444819D01*
X126452126Y-70479077D01*
X126491139Y-70518090D01*
X126502504Y-70527417D01*
X126529540Y-70538616D01*
X126558803Y-70538616D01*
X126585839Y-70527417D01*
X126606532Y-70506724D01*
X126617731Y-70479688D01*
X126617731Y-70450425D01*
X126606532Y-70423389D01*
X126597205Y-70412024D01*
X126549586Y-70364405D01*
X126543836Y-70359686D01*
X126542537Y-70358188D01*
X126540277Y-70356766D01*
X126538221Y-70355078D01*
X126536393Y-70354320D01*
X126530094Y-70350356D01*
X126434856Y-70302737D01*
X126421124Y-70297482D01*
X126418436Y-70297291D01*
X126415947Y-70296260D01*
X126401315Y-70294819D01*
X126163220Y-70294819D01*
X126148588Y-70296260D01*
X126146099Y-70297290D01*
X126143410Y-70297482D01*
X126129679Y-70302737D01*
X126034441Y-70350356D01*
X126028141Y-70354320D01*
X126026314Y-70355078D01*
X126024257Y-70356766D01*
X126021998Y-70358188D01*
X126020698Y-70359686D01*
X126014949Y-70364405D01*
X125967330Y-70412024D01*
X125962611Y-70417773D01*
X125961113Y-70419073D01*
X125959691Y-70421332D01*
X125958003Y-70423389D01*
X125957245Y-70425216D01*
X125953281Y-70431516D01*
X125905662Y-70526754D01*
X125900407Y-70540486D01*
X125900216Y-70543173D01*
X125899185Y-70545663D01*
X125897744Y-70560295D01*
X125512118Y-70560295D01*
X125424847Y-70298483D01*
X125418853Y-70285057D01*
X125399679Y-70262950D01*
X125373506Y-70249864D01*
X125344316Y-70247789D01*
X125316553Y-70257043D01*
X125294446Y-70276217D01*
X125281360Y-70302390D01*
X125279285Y-70331580D01*
X125282545Y-70345917D01*
X125487734Y-70961485D01*
X125190601Y-70961485D01*
X125190601Y-70703152D01*
X125189160Y-70688520D01*
X125177961Y-70661484D01*
X125157269Y-70640792D01*
X125130233Y-70629593D01*
X125100969Y-70629593D01*
X125073933Y-70640792D01*
X125053241Y-70661484D01*
X125042042Y-70688520D01*
X125040601Y-70703152D01*
X125040601Y-70961485D01*
X124972744Y-70961485D01*
X124958112Y-70962926D01*
X124931076Y-70974125D01*
X124910384Y-70994817D01*
X124899185Y-71021853D01*
X124657747Y-71021853D01*
X124665350Y-71003498D01*
X124665350Y-70974234D01*
X124654151Y-70947198D01*
X124633459Y-70926506D01*
X124606423Y-70915307D01*
X124591791Y-70913866D01*
X123829887Y-70913866D01*
X123815255Y-70915307D01*
X123788219Y-70926506D01*
X123767527Y-70947198D01*
X123756328Y-70974234D01*
X123190601Y-70974234D01*
X123190601Y-70598504D01*
X123253044Y-70660947D01*
X123258794Y-70665667D01*
X123260093Y-70667164D01*
X123262347Y-70668583D01*
X123264409Y-70670275D01*
X123266241Y-70671033D01*
X123272536Y-70674996D01*
X123367774Y-70722615D01*
X123381505Y-70727870D01*
X123410695Y-70729944D01*
X123438457Y-70720690D01*
X123460564Y-70701517D01*
X123473652Y-70675342D01*
X123475726Y-70646152D01*
X123466472Y-70618391D01*
X123447299Y-70596283D01*
X123434856Y-70588451D01*
X123350504Y-70546275D01*
X123269123Y-70464894D01*
X123178005Y-70328216D01*
X123177970Y-70328173D01*
X123177961Y-70328151D01*
X123177909Y-70328099D01*
X123168689Y-70316841D01*
X123162519Y-70312709D01*
X123157269Y-70307459D01*
X123150479Y-70304646D01*
X123144374Y-70300558D01*
X123137093Y-70299101D01*
X123130233Y-70296260D01*
X123122885Y-70296260D01*
X123115680Y-70294819D01*
X123108396Y-70296260D01*
X123100969Y-70296260D01*
X123094180Y-70299072D01*
X123086972Y-70300498D01*
X123080793Y-70304617D01*
X123073933Y-70307459D01*
X123068737Y-70312654D01*
X123062623Y-70316731D01*
X123058491Y-70322900D01*
X123053241Y-70328151D01*
X123050428Y-70334940D01*
X123046340Y-70341046D01*
X123044883Y-70348326D01*
X123042042Y-70355187D01*
X123040616Y-70369663D01*
X123040601Y-70369740D01*
X123040606Y-70369766D01*
X123040601Y-70369819D01*
X123040601Y-71294819D01*
X122829887Y-71294819D01*
X122815255Y-71296260D01*
X122788219Y-71307459D01*
X122767527Y-71328151D01*
X122756328Y-71355187D01*
X122570112Y-71355187D01*
X122558914Y-71328151D01*
X122549586Y-71316786D01*
X121990677Y-70757876D01*
X121952506Y-70643362D01*
X121952506Y-70578000D01*
X121986764Y-70509484D01*
X122017171Y-70479077D01*
X122085687Y-70444819D01*
X122288372Y-70444819D01*
X122356888Y-70479077D01*
X122395901Y-70518090D01*
X122407266Y-70527417D01*
X122434302Y-70538616D01*
X122463565Y-70538616D01*
X122490601Y-70527417D01*
X122511294Y-70506724D01*
X122522493Y-70479688D01*
X122522493Y-70450425D01*
X122511294Y-70423389D01*
X122501967Y-70412024D01*
X122454348Y-70364405D01*
X122448598Y-70359686D01*
X122447299Y-70358188D01*
X122445039Y-70356766D01*
X122442983Y-70355078D01*
X122441155Y-70354320D01*
X122434856Y-70350356D01*
X122339618Y-70302737D01*
X122325886Y-70297482D01*
X122323198Y-70297291D01*
X122320709Y-70296260D01*
X122306077Y-70294819D01*
X122067982Y-70294819D01*
X122053350Y-70296260D01*
X122050861Y-70297290D01*
X122048172Y-70297482D01*
X122034441Y-70302737D01*
X121939203Y-70350356D01*
X121932903Y-70354320D01*
X121931076Y-70355078D01*
X121929019Y-70356766D01*
X121926760Y-70358188D01*
X121925460Y-70359686D01*
X121919711Y-70364405D01*
X121872092Y-70412024D01*
X121867373Y-70417773D01*
X121865875Y-70419073D01*
X121864453Y-70421332D01*
X121862765Y-70423389D01*
X121862007Y-70425216D01*
X121858043Y-70431516D01*
X121810424Y-70526754D01*
X121805169Y-70540486D01*
X121804978Y-70543173D01*
X121803947Y-70545663D01*
X121802506Y-70560295D01*
X119770883Y-70560295D01*
X119796288Y-70509484D01*
X119826695Y-70479077D01*
X119895211Y-70444819D01*
X120097896Y-70444819D01*
X120166412Y-70479077D01*
X120205425Y-70518090D01*
X120216790Y-70527417D01*
X120243826Y-70538616D01*
X120273089Y-70538616D01*
X120300125Y-70527417D01*
X120320818Y-70506724D01*
X120332017Y-70479688D01*
X120332017Y-70450425D01*
X120320818Y-70423389D01*
X120311491Y-70412024D01*
X120263872Y-70364405D01*
X120258122Y-70359686D01*
X120256823Y-70358188D01*
X120254563Y-70356766D01*
X120252507Y-70355078D01*
X120250679Y-70354320D01*
X120244380Y-70350356D01*
X120149142Y-70302737D01*
X120135410Y-70297482D01*
X120132722Y-70297291D01*
X120130233Y-70296260D01*
X120115601Y-70294819D01*
X119877506Y-70294819D01*
X119862874Y-70296260D01*
X119860385Y-70297290D01*
X119857696Y-70297482D01*
X119843965Y-70302737D01*
X119748727Y-70350356D01*
X119742427Y-70354320D01*
X119740600Y-70355078D01*
X119738543Y-70356766D01*
X119736284Y-70358188D01*
X119734984Y-70359686D01*
X119729235Y-70364405D01*
X119681616Y-70412024D01*
X119676897Y-70417773D01*
X119675399Y-70419073D01*
X119673977Y-70421332D01*
X119672289Y-70423389D01*
X119671531Y-70425216D01*
X119667567Y-70431516D01*
X119619948Y-70526754D01*
X119614693Y-70540486D01*
X119614502Y-70543173D01*
X119613471Y-70545663D01*
X119612030Y-70560295D01*
X118818502Y-70560295D01*
X118843907Y-70509484D01*
X118874314Y-70479077D01*
X118942830Y-70444819D01*
X119145515Y-70444819D01*
X119214031Y-70479077D01*
X119253044Y-70518090D01*
X119264409Y-70527417D01*
X119291445Y-70538616D01*
X119320708Y-70538616D01*
X119347744Y-70527417D01*
X119368437Y-70506724D01*
X119379636Y-70479688D01*
X119379636Y-70450425D01*
X119368437Y-70423389D01*
X119359110Y-70412024D01*
X119311491Y-70364405D01*
X119305741Y-70359686D01*
X119304442Y-70358188D01*
X119302182Y-70356766D01*
X119300126Y-70355078D01*
X119298298Y-70354320D01*
X119291999Y-70350356D01*
X119196761Y-70302737D01*
X119183029Y-70297482D01*
X119180341Y-70297291D01*
X119177852Y-70296260D01*
X119163220Y-70294819D01*
X118925125Y-70294819D01*
X118910493Y-70296260D01*
X118908004Y-70297290D01*
X118905315Y-70297482D01*
X118891584Y-70302737D01*
X118796346Y-70350356D01*
X118790046Y-70354320D01*
X118788219Y-70355078D01*
X118786162Y-70356766D01*
X118783903Y-70358188D01*
X118782603Y-70359686D01*
X118776854Y-70364405D01*
X118729235Y-70412024D01*
X118724516Y-70417773D01*
X118723018Y-70419073D01*
X118721596Y-70421332D01*
X118719908Y-70423389D01*
X118719150Y-70425216D01*
X118715186Y-70431516D01*
X118667567Y-70526754D01*
X118662312Y-70540486D01*
X118662121Y-70543173D01*
X118661090Y-70545663D01*
X118659649Y-70560295D01*
X115978550Y-70560295D01*
X115978550Y-69745243D01*
X123613472Y-69745243D01*
X123613472Y-69774507D01*
X123624671Y-69801543D01*
X123645363Y-69822235D01*
X123672399Y-69833434D01*
X123687031Y-69834875D01*
X124258459Y-69834875D01*
X124273091Y-69833434D01*
X124300127Y-69822235D01*
X124320819Y-69801543D01*
X124332018Y-69774507D01*
X124332018Y-69745243D01*
X124320819Y-69718207D01*
X124300237Y-69697625D01*
X124565852Y-69697625D01*
X124565852Y-69726888D01*
X124570889Y-69739047D01*
X124577051Y-69753924D01*
X124586378Y-69765289D01*
X124633997Y-69812908D01*
X124645362Y-69822235D01*
X124672398Y-69833434D01*
X124672399Y-69833434D01*
X124701661Y-69833434D01*
X124701662Y-69833434D01*
X124728698Y-69822235D01*
X124740063Y-69812908D01*
X124787682Y-69765289D01*
X124797009Y-69753924D01*
X124800605Y-69745243D01*
X125042043Y-69745243D01*
X125042043Y-69774507D01*
X125053242Y-69801543D01*
X125073934Y-69822235D01*
X125100970Y-69833434D01*
X125115602Y-69834875D01*
X125687030Y-69834875D01*
X125701662Y-69833434D01*
X125728698Y-69822235D01*
X125749390Y-69801543D01*
X125760589Y-69774507D01*
X125760589Y-69745243D01*
X125749390Y-69718207D01*
X125728808Y-69697625D01*
X126756328Y-69697625D01*
X126756328Y-69726888D01*
X126761365Y-69739047D01*
X126767527Y-69753924D01*
X126776854Y-69765289D01*
X126824473Y-69812908D01*
X126835838Y-69822235D01*
X126862874Y-69833434D01*
X126862875Y-69833434D01*
X126892137Y-69833434D01*
X126892138Y-69833434D01*
X126919174Y-69822235D01*
X126930539Y-69812908D01*
X126978158Y-69765289D01*
X126987485Y-69753924D01*
X126998684Y-69726888D01*
X126998684Y-69697625D01*
X126997480Y-69694718D01*
X126987486Y-69670589D01*
X126978158Y-69659223D01*
X126930540Y-69611604D01*
X126919174Y-69602276D01*
X126919173Y-69602275D01*
X126903336Y-69595715D01*
X126892138Y-69591077D01*
X126892137Y-69591077D01*
X126862874Y-69591077D01*
X126851676Y-69595715D01*
X126835839Y-69602275D01*
X126835838Y-69602276D01*
X126824472Y-69611604D01*
X126776853Y-69659224D01*
X126767526Y-69670589D01*
X126756328Y-69697625D01*
X125728808Y-69697625D01*
X125728698Y-69697515D01*
X125701662Y-69686316D01*
X125687030Y-69684875D01*
X125476316Y-69684875D01*
X125476316Y-69173815D01*
X126756328Y-69173815D01*
X126756328Y-69203077D01*
X126767527Y-69230114D01*
X126776854Y-69241479D01*
X126824473Y-69289098D01*
X126835838Y-69298425D01*
X126862874Y-69309624D01*
X126862875Y-69309624D01*
X126892137Y-69309624D01*
X126892138Y-69309624D01*
X126919174Y-69298425D01*
X126930539Y-69289098D01*
X126978158Y-69241479D01*
X126987485Y-69230114D01*
X126998684Y-69203078D01*
X126998684Y-69173815D01*
X126998639Y-69173705D01*
X126987485Y-69146778D01*
X126978158Y-69135413D01*
X126930539Y-69087794D01*
X126919174Y-69078467D01*
X126892138Y-69067268D01*
X126892137Y-69067268D01*
X126862874Y-69067268D01*
X126835838Y-69078467D01*
X126824473Y-69087794D01*
X126776854Y-69135413D01*
X126767527Y-69146778D01*
X126756328Y-69173815D01*
X125476316Y-69173815D01*
X125476316Y-68988560D01*
X125538759Y-69051003D01*
X125544509Y-69055723D01*
X125545808Y-69057220D01*
X125548062Y-69058639D01*
X125550124Y-69060331D01*
X125551956Y-69061089D01*
X125558251Y-69065052D01*
X125653489Y-69112671D01*
X125667220Y-69117926D01*
X125696410Y-69120000D01*
X125724172Y-69110746D01*
X125746279Y-69091573D01*
X125759367Y-69065398D01*
X125761441Y-69036208D01*
X125752187Y-69008447D01*
X125733014Y-68986339D01*
X125720571Y-68978507D01*
X125636219Y-68936331D01*
X125554838Y-68854950D01*
X125491455Y-68759875D01*
X127278697Y-68759875D01*
X127278697Y-69759875D01*
X127279067Y-69763638D01*
X127278880Y-69765114D01*
X127279401Y-69767024D01*
X127280138Y-69774507D01*
X127283955Y-69783722D01*
X127286580Y-69793346D01*
X127289507Y-69797126D01*
X127291337Y-69801543D01*
X127298387Y-69808593D01*
X127304497Y-69816483D01*
X127308650Y-69818856D01*
X127312029Y-69822235D01*
X127321241Y-69826051D01*
X127329906Y-69831002D01*
X127334649Y-69831604D01*
X127339065Y-69833434D01*
X127349039Y-69833434D01*
X127358936Y-69834692D01*
X127363548Y-69833434D01*
X127368329Y-69833434D01*
X127377544Y-69829616D01*
X127387168Y-69826992D01*
X127390948Y-69824064D01*
X127395365Y-69822235D01*
X127402415Y-69815184D01*
X127410305Y-69809075D01*
X127414657Y-69802942D01*
X127416057Y-69801543D01*
X127416626Y-69800168D01*
X127418815Y-69797085D01*
X127850125Y-69042291D01*
X127850125Y-69759875D01*
X127851566Y-69774507D01*
X127862765Y-69801543D01*
X127883457Y-69822235D01*
X127910493Y-69833434D01*
X127939757Y-69833434D01*
X127966793Y-69822235D01*
X127987485Y-69801543D01*
X127998684Y-69774507D01*
X128000125Y-69759875D01*
X128000125Y-69093208D01*
X128278697Y-69093208D01*
X128278697Y-69426541D01*
X128278948Y-69429094D01*
X128278786Y-69430187D01*
X128279595Y-69435660D01*
X128280138Y-69441173D01*
X128280560Y-69442194D01*
X128280936Y-69444731D01*
X128328555Y-69635207D01*
X128333502Y-69649053D01*
X128336821Y-69653532D01*
X128338955Y-69658684D01*
X128348283Y-69670050D01*
X128443521Y-69765289D01*
X128449271Y-69770009D01*
X128450570Y-69771506D01*
X128452824Y-69772925D01*
X128454886Y-69774617D01*
X128456718Y-69775375D01*
X128463013Y-69779338D01*
X128558251Y-69826957D01*
X128571982Y-69832212D01*
X128574671Y-69832403D01*
X128577160Y-69833434D01*
X128591792Y-69834875D01*
X128782268Y-69834875D01*
X128796900Y-69833434D01*
X128799389Y-69832402D01*
X128802077Y-69832212D01*
X128815809Y-69826957D01*
X128911047Y-69779338D01*
X128917346Y-69775373D01*
X128919174Y-69774616D01*
X128921230Y-69772927D01*
X128923490Y-69771506D01*
X128924789Y-69770007D01*
X128930539Y-69765289D01*
X129025778Y-69670049D01*
X129035105Y-69658684D01*
X129037238Y-69653532D01*
X129040558Y-69649053D01*
X129045505Y-69635207D01*
X129093124Y-69444731D01*
X129093499Y-69442194D01*
X129093922Y-69441173D01*
X129094464Y-69435660D01*
X129095274Y-69430187D01*
X129095111Y-69429094D01*
X129095363Y-69426541D01*
X129095363Y-69093208D01*
X129095111Y-69090654D01*
X129095274Y-69089562D01*
X129094464Y-69084088D01*
X129093922Y-69078576D01*
X129093499Y-69077554D01*
X129093124Y-69075018D01*
X129045505Y-68884542D01*
X129040558Y-68870696D01*
X129037239Y-68866217D01*
X129035105Y-68861064D01*
X129025777Y-68849699D01*
X128935953Y-68759875D01*
X129373934Y-68759875D01*
X129373934Y-69759875D01*
X129375375Y-69774507D01*
X129386574Y-69801543D01*
X129407266Y-69822235D01*
X129434302Y-69833434D01*
X129463566Y-69833434D01*
X129490602Y-69822235D01*
X129511294Y-69801543D01*
X129522493Y-69774507D01*
X129523934Y-69759875D01*
X129523934Y-69474160D01*
X129802506Y-69474160D01*
X129802506Y-69569398D01*
X129803947Y-69584030D01*
X129804978Y-69586519D01*
X129805169Y-69589207D01*
X129810424Y-69602939D01*
X129858043Y-69698177D01*
X129862006Y-69704473D01*
X129862764Y-69706303D01*
X129864453Y-69708361D01*
X129865875Y-69710620D01*
X129867373Y-69711919D01*
X129872091Y-69717668D01*
X129919710Y-69765288D01*
X129925459Y-69770006D01*
X129926760Y-69771506D01*
X129929019Y-69772928D01*
X129931076Y-69774616D01*
X129932903Y-69775373D01*
X129939203Y-69779338D01*
X130034441Y-69826957D01*
X130048172Y-69832212D01*
X130050861Y-69832403D01*
X130053350Y-69833434D01*
X130067982Y-69834875D01*
X130306077Y-69834875D01*
X130313482Y-69834145D01*
X130315457Y-69834286D01*
X130318054Y-69833695D01*
X130320709Y-69833434D01*
X130322540Y-69832675D01*
X130329794Y-69831026D01*
X130472651Y-69783407D01*
X130486076Y-69777413D01*
X130508183Y-69758239D01*
X130521270Y-69732066D01*
X130523345Y-69702876D01*
X130514091Y-69675114D01*
X130494917Y-69653006D01*
X130468743Y-69639920D01*
X130439553Y-69637845D01*
X130425216Y-69641105D01*
X130293907Y-69684875D01*
X130085687Y-69684875D01*
X130017171Y-69650617D01*
X129986764Y-69620209D01*
X129952506Y-69551693D01*
X129952506Y-69491865D01*
X129986764Y-69423349D01*
X130017171Y-69392942D01*
X130094158Y-69354448D01*
X130276648Y-69308826D01*
X130277727Y-69308440D01*
X130278267Y-69308402D01*
X130284348Y-69306074D01*
X130290494Y-69303879D01*
X130290929Y-69303556D01*
X130291999Y-69303147D01*
X130387237Y-69255528D01*
X130393536Y-69251563D01*
X130395364Y-69250806D01*
X130397420Y-69249117D01*
X130399680Y-69247696D01*
X130400979Y-69246197D01*
X130406729Y-69241479D01*
X130454348Y-69193860D01*
X130459066Y-69188110D01*
X130460565Y-69186811D01*
X130461986Y-69184551D01*
X130463675Y-69182495D01*
X130464432Y-69180667D01*
X130468397Y-69174368D01*
X130516016Y-69079130D01*
X130521271Y-69065399D01*
X130521462Y-69062709D01*
X130522493Y-69060221D01*
X130523934Y-69045589D01*
X130523934Y-68950351D01*
X130754887Y-68950351D01*
X130754887Y-69093208D01*
X130756328Y-69107840D01*
X130757359Y-69110329D01*
X130757550Y-69113017D01*
X130762805Y-69126749D01*
X130810424Y-69221987D01*
X130814388Y-69228286D01*
X130815146Y-69230114D01*
X130816834Y-69232170D01*
X130818256Y-69234430D01*
X130819754Y-69235729D01*
X130824473Y-69241479D01*
X130872092Y-69289098D01*
X130877841Y-69293816D01*
X130879141Y-69295315D01*
X130881400Y-69296736D01*
X130883457Y-69298425D01*
X130885284Y-69299182D01*
X130891584Y-69303147D01*
X130986822Y-69350766D01*
X131000553Y-69356021D01*
X131003242Y-69356212D01*
X131005731Y-69357243D01*
X131019248Y-69358574D01*
X130768445Y-69716865D01*
X130761234Y-69729679D01*
X130754905Y-69758250D01*
X130759990Y-69787067D01*
X130775717Y-69811746D01*
X130799691Y-69828528D01*
X130828262Y-69834857D01*
X130857079Y-69829772D01*
X130881758Y-69814045D01*
X130891329Y-69802885D01*
X131202269Y-69358684D01*
X131326315Y-69358684D01*
X131326315Y-69759875D01*
X131327756Y-69774507D01*
X131338955Y-69801543D01*
X131359647Y-69822235D01*
X131386683Y-69833434D01*
X131415947Y-69833434D01*
X131442983Y-69822235D01*
X131463675Y-69801543D01*
X131474874Y-69774507D01*
X131476315Y-69759875D01*
X131476315Y-68759875D01*
X131474874Y-68745243D01*
X131756328Y-68745243D01*
X131756328Y-68774507D01*
X131767527Y-68801543D01*
X131788219Y-68822235D01*
X131815255Y-68833434D01*
X131829887Y-68834875D01*
X132231077Y-68834875D01*
X132231077Y-69161065D01*
X131972744Y-69161065D01*
X131958112Y-69162506D01*
X131931076Y-69173705D01*
X131910384Y-69194397D01*
X131899185Y-69221433D01*
X131899185Y-69250697D01*
X131910384Y-69277733D01*
X131931076Y-69298425D01*
X131958112Y-69309624D01*
X131972744Y-69311065D01*
X132231077Y-69311065D01*
X132231077Y-69684875D01*
X131829887Y-69684875D01*
X131815255Y-69686316D01*
X131788219Y-69697515D01*
X131767527Y-69718207D01*
X131756328Y-69745243D01*
X131756328Y-69774507D01*
X131767527Y-69801543D01*
X131788219Y-69822235D01*
X131815255Y-69833434D01*
X131829887Y-69834875D01*
X132306077Y-69834875D01*
X132320709Y-69833434D01*
X132347745Y-69822235D01*
X132368437Y-69801543D01*
X132379636Y-69774507D01*
X132379636Y-69774506D01*
X132381077Y-69759875D01*
X132381077Y-68769255D01*
X132565000Y-68769255D01*
X132568260Y-68783592D01*
X132901593Y-69783592D01*
X132907587Y-69797017D01*
X132911097Y-69801064D01*
X132913494Y-69805858D01*
X132920602Y-69812023D01*
X132926761Y-69819124D01*
X132931550Y-69821518D01*
X132935601Y-69825032D01*
X132944526Y-69828006D01*
X132952934Y-69832211D01*
X132958278Y-69832590D01*
X132963364Y-69834286D01*
X132972744Y-69833619D01*
X132982124Y-69834286D01*
X132987209Y-69832590D01*
X132992554Y-69832211D01*
X133000964Y-69828005D01*
X133009886Y-69825032D01*
X133013933Y-69821521D01*
X133018727Y-69819125D01*
X133024890Y-69812019D01*
X133031994Y-69805858D01*
X133034389Y-69801066D01*
X133037901Y-69797018D01*
X133043895Y-69783592D01*
X133377228Y-68783592D01*
X133380488Y-68769256D01*
X133378413Y-68740066D01*
X133365327Y-68713892D01*
X133343219Y-68694718D01*
X133315457Y-68685464D01*
X133286267Y-68687539D01*
X133260094Y-68700626D01*
X133240920Y-68722733D01*
X133234926Y-68736158D01*
X132972744Y-69522704D01*
X132710562Y-68736158D01*
X132704568Y-68722732D01*
X132685394Y-68700625D01*
X132659221Y-68687539D01*
X132630031Y-68685464D01*
X132602268Y-68694718D01*
X132580161Y-68713892D01*
X132567075Y-68740065D01*
X132565000Y-68769255D01*
X132381077Y-68769255D01*
X132381077Y-68759875D01*
X132379636Y-68745243D01*
X132368437Y-68718207D01*
X132347745Y-68697515D01*
X132320709Y-68686316D01*
X132306077Y-68684875D01*
X131829887Y-68684875D01*
X131815255Y-68686316D01*
X131788219Y-68697515D01*
X131767527Y-68718207D01*
X131756328Y-68745243D01*
X131474874Y-68745243D01*
X131463675Y-68718207D01*
X131442983Y-68697515D01*
X131415947Y-68686316D01*
X131401315Y-68684875D01*
X131020363Y-68684875D01*
X131005731Y-68686316D01*
X131003242Y-68687346D01*
X131000553Y-68687538D01*
X130986822Y-68692793D01*
X130891584Y-68740412D01*
X130885284Y-68744376D01*
X130883457Y-68745134D01*
X130881400Y-68746822D01*
X130879141Y-68748244D01*
X130877841Y-68749742D01*
X130872092Y-68754461D01*
X130824473Y-68802080D01*
X130819754Y-68807829D01*
X130818256Y-68809129D01*
X130816834Y-68811388D01*
X130815146Y-68813445D01*
X130814388Y-68815272D01*
X130810424Y-68821572D01*
X130762805Y-68916810D01*
X130757550Y-68930542D01*
X130757359Y-68933229D01*
X130756328Y-68935719D01*
X130754887Y-68950351D01*
X130523934Y-68950351D01*
X130522493Y-68935719D01*
X130521462Y-68933230D01*
X130521271Y-68930541D01*
X130516016Y-68916810D01*
X130468397Y-68821572D01*
X130464432Y-68815272D01*
X130463675Y-68813445D01*
X130461986Y-68811388D01*
X130460565Y-68809129D01*
X130459066Y-68807829D01*
X130454348Y-68802080D01*
X130406729Y-68754461D01*
X130400979Y-68749742D01*
X130399680Y-68748244D01*
X130397420Y-68746822D01*
X130395364Y-68745134D01*
X130393536Y-68744376D01*
X130387237Y-68740412D01*
X130291999Y-68692793D01*
X130278267Y-68687538D01*
X130275579Y-68687347D01*
X130273090Y-68686316D01*
X130258458Y-68684875D01*
X130020363Y-68684875D01*
X130012956Y-68685604D01*
X130010982Y-68685464D01*
X130008384Y-68686054D01*
X130005731Y-68686316D01*
X130003900Y-68687074D01*
X129996645Y-68688724D01*
X129853789Y-68736343D01*
X129840363Y-68742337D01*
X129818256Y-68761511D01*
X129805170Y-68787684D01*
X129803095Y-68816874D01*
X129812349Y-68844637D01*
X129831523Y-68866744D01*
X129857696Y-68879830D01*
X129886886Y-68881905D01*
X129901223Y-68878645D01*
X130032533Y-68834875D01*
X130240753Y-68834875D01*
X130309269Y-68869133D01*
X130339676Y-68899540D01*
X130373934Y-68968056D01*
X130373934Y-69027884D01*
X130339676Y-69096400D01*
X130309269Y-69126807D01*
X130232282Y-69165300D01*
X130049792Y-69210923D01*
X130048712Y-69211308D01*
X130048172Y-69211347D01*
X130042082Y-69213677D01*
X130035946Y-69215870D01*
X130035510Y-69216192D01*
X130034441Y-69216602D01*
X129939203Y-69264221D01*
X129932903Y-69268185D01*
X129931076Y-69268943D01*
X129929019Y-69270631D01*
X129926760Y-69272053D01*
X129925460Y-69273551D01*
X129919711Y-69278270D01*
X129872092Y-69325889D01*
X129867373Y-69331638D01*
X129865875Y-69332938D01*
X129864453Y-69335197D01*
X129862765Y-69337254D01*
X129862007Y-69339081D01*
X129858043Y-69345381D01*
X129810424Y-69440619D01*
X129805169Y-69454351D01*
X129804978Y-69457038D01*
X129803947Y-69459528D01*
X129802506Y-69474160D01*
X129523934Y-69474160D01*
X129523934Y-68759875D01*
X129522493Y-68745243D01*
X129511294Y-68718207D01*
X129490602Y-68697515D01*
X129463566Y-68686316D01*
X129434302Y-68686316D01*
X129407266Y-68697515D01*
X129386574Y-68718207D01*
X129375375Y-68745243D01*
X129373934Y-68759875D01*
X128935953Y-68759875D01*
X128930539Y-68754461D01*
X128924789Y-68749742D01*
X128923490Y-68748244D01*
X128921230Y-68746822D01*
X128919174Y-68745134D01*
X128917346Y-68744376D01*
X128911047Y-68740412D01*
X128815809Y-68692793D01*
X128802077Y-68687538D01*
X128799389Y-68687347D01*
X128796900Y-68686316D01*
X128782268Y-68684875D01*
X128591792Y-68684875D01*
X128577160Y-68686316D01*
X128574671Y-68687346D01*
X128571982Y-68687538D01*
X128558251Y-68692793D01*
X128463013Y-68740412D01*
X128456718Y-68744374D01*
X128454886Y-68745133D01*
X128452824Y-68746824D01*
X128450570Y-68748244D01*
X128449271Y-68749740D01*
X128443521Y-68754461D01*
X128348283Y-68849699D01*
X128338956Y-68861064D01*
X128336822Y-68866214D01*
X128333502Y-68870696D01*
X128328555Y-68884542D01*
X128280936Y-69075018D01*
X128280560Y-69077554D01*
X128280138Y-69078576D01*
X128279595Y-69084088D01*
X128278786Y-69089562D01*
X128278948Y-69090654D01*
X128278697Y-69093208D01*
X128000125Y-69093208D01*
X128000125Y-68759875D01*
X127999754Y-68756111D01*
X127999942Y-68754636D01*
X127999420Y-68752725D01*
X127998684Y-68745243D01*
X127994866Y-68736027D01*
X127992242Y-68726404D01*
X127989314Y-68722623D01*
X127987485Y-68718207D01*
X127980434Y-68711156D01*
X127974325Y-68703267D01*
X127970171Y-68700893D01*
X127966793Y-68697515D01*
X127957580Y-68693698D01*
X127948916Y-68688748D01*
X127944172Y-68688145D01*
X127939757Y-68686316D01*
X127929783Y-68686316D01*
X127919886Y-68685058D01*
X127915274Y-68686316D01*
X127910493Y-68686316D01*
X127901276Y-68690133D01*
X127891655Y-68692758D01*
X127887875Y-68695684D01*
X127883457Y-68697515D01*
X127876405Y-68704566D01*
X127868517Y-68710675D01*
X127864162Y-68716809D01*
X127862765Y-68718207D01*
X127862196Y-68719579D01*
X127860007Y-68722664D01*
X127428697Y-69477458D01*
X127428697Y-68759875D01*
X127427256Y-68745243D01*
X127416057Y-68718207D01*
X127395365Y-68697515D01*
X127368329Y-68686316D01*
X127339065Y-68686316D01*
X127312029Y-68697515D01*
X127291337Y-68718207D01*
X127280138Y-68745243D01*
X127278697Y-68759875D01*
X125491455Y-68759875D01*
X125463720Y-68718272D01*
X125463685Y-68718229D01*
X125463676Y-68718207D01*
X125463624Y-68718155D01*
X125454404Y-68706897D01*
X125448234Y-68702765D01*
X125442984Y-68697515D01*
X125436194Y-68694702D01*
X125430089Y-68690614D01*
X125422808Y-68689157D01*
X125415948Y-68686316D01*
X125408600Y-68686316D01*
X125401395Y-68684875D01*
X125394111Y-68686316D01*
X125386684Y-68686316D01*
X125379895Y-68689128D01*
X125372687Y-68690554D01*
X125366508Y-68694673D01*
X125359648Y-68697515D01*
X125354452Y-68702710D01*
X125348338Y-68706787D01*
X125344206Y-68712956D01*
X125338956Y-68718207D01*
X125336143Y-68724996D01*
X125332055Y-68731102D01*
X125330598Y-68738382D01*
X125327757Y-68745243D01*
X125326331Y-68759719D01*
X125326316Y-68759796D01*
X125326321Y-68759822D01*
X125326316Y-68759875D01*
X125326316Y-69684875D01*
X125115602Y-69684875D01*
X125100970Y-69686316D01*
X125073934Y-69697515D01*
X125053242Y-69718207D01*
X125042043Y-69745243D01*
X124800605Y-69745243D01*
X124808208Y-69726888D01*
X124808208Y-69697625D01*
X124807004Y-69694718D01*
X124797010Y-69670589D01*
X124787682Y-69659223D01*
X124740064Y-69611604D01*
X124728698Y-69602276D01*
X124728697Y-69602275D01*
X124712860Y-69595715D01*
X124701662Y-69591077D01*
X124701661Y-69591077D01*
X124672398Y-69591077D01*
X124661200Y-69595715D01*
X124645363Y-69602275D01*
X124645362Y-69602276D01*
X124633996Y-69611604D01*
X124586377Y-69659224D01*
X124577050Y-69670589D01*
X124565852Y-69697625D01*
X124300237Y-69697625D01*
X124300127Y-69697515D01*
X124273091Y-69686316D01*
X124258459Y-69684875D01*
X124047745Y-69684875D01*
X124047745Y-68988560D01*
X124110188Y-69051003D01*
X124115938Y-69055723D01*
X124117237Y-69057220D01*
X124119491Y-69058639D01*
X124121553Y-69060331D01*
X124123385Y-69061089D01*
X124129680Y-69065052D01*
X124224918Y-69112671D01*
X124238649Y-69117926D01*
X124267839Y-69120000D01*
X124295601Y-69110746D01*
X124317708Y-69091573D01*
X124330796Y-69065398D01*
X124332870Y-69036208D01*
X124323616Y-69008447D01*
X124304443Y-68986339D01*
X124292000Y-68978507D01*
X124207648Y-68936331D01*
X124126267Y-68854950D01*
X124035149Y-68718272D01*
X124035114Y-68718229D01*
X124035105Y-68718207D01*
X124035053Y-68718155D01*
X124025833Y-68706897D01*
X124019663Y-68702765D01*
X124014413Y-68697515D01*
X124007623Y-68694702D01*
X124001518Y-68690614D01*
X123994237Y-68689157D01*
X123987377Y-68686316D01*
X123980029Y-68686316D01*
X123972824Y-68684875D01*
X123965540Y-68686316D01*
X123958113Y-68686316D01*
X123951324Y-68689128D01*
X123944116Y-68690554D01*
X123937937Y-68694673D01*
X123931077Y-68697515D01*
X123925881Y-68702710D01*
X123919767Y-68706787D01*
X123915635Y-68712956D01*
X123910385Y-68718207D01*
X123907572Y-68724996D01*
X123903484Y-68731102D01*
X123902027Y-68738382D01*
X123899186Y-68745243D01*
X123897760Y-68759719D01*
X123897745Y-68759796D01*
X123897750Y-68759822D01*
X123897745Y-68759875D01*
X123897745Y-69684875D01*
X123687031Y-69684875D01*
X123672399Y-69686316D01*
X123645363Y-69697515D01*
X123624671Y-69718207D01*
X123613472Y-69745243D01*
X115978550Y-69745243D01*
X115978550Y-67135299D01*
X116089661Y-67135299D01*
X116089661Y-67164563D01*
X116100860Y-67191599D01*
X116121552Y-67212291D01*
X116148588Y-67223490D01*
X116163220Y-67224931D01*
X116564410Y-67224931D01*
X116564410Y-67551121D01*
X116306077Y-67551121D01*
X116291445Y-67552562D01*
X116264409Y-67563761D01*
X116243717Y-67584453D01*
X116232518Y-67611489D01*
X116232518Y-67640753D01*
X116243717Y-67667789D01*
X116264409Y-67688481D01*
X116291445Y-67699680D01*
X116306077Y-67701121D01*
X116564410Y-67701121D01*
X116564410Y-68074931D01*
X116163220Y-68074931D01*
X116148588Y-68076372D01*
X116121552Y-68087571D01*
X116100860Y-68108263D01*
X116089661Y-68135299D01*
X116089661Y-68164563D01*
X116100860Y-68191599D01*
X116121552Y-68212291D01*
X116148588Y-68223490D01*
X116163220Y-68224931D01*
X116639410Y-68224931D01*
X116654042Y-68223490D01*
X116681078Y-68212291D01*
X116701770Y-68191599D01*
X116712969Y-68164563D01*
X116714410Y-68149931D01*
X116714410Y-68135299D01*
X116899185Y-68135299D01*
X116899185Y-68164563D01*
X116910384Y-68191599D01*
X116931076Y-68212291D01*
X116958112Y-68223490D01*
X116972744Y-68224931D01*
X117448934Y-68224931D01*
X117463566Y-68223490D01*
X117490602Y-68212291D01*
X117511294Y-68191599D01*
X117522493Y-68164563D01*
X117523934Y-68149931D01*
X117523934Y-67149931D01*
X117850125Y-67149931D01*
X117850125Y-67959454D01*
X117851566Y-67974086D01*
X117852597Y-67976575D01*
X117852788Y-67979263D01*
X117858043Y-67992995D01*
X117905662Y-68088233D01*
X117909625Y-68094529D01*
X117910383Y-68096359D01*
X117912072Y-68098417D01*
X117913494Y-68100676D01*
X117914992Y-68101975D01*
X117919710Y-68107724D01*
X117967329Y-68155344D01*
X117973078Y-68160062D01*
X117974379Y-68161562D01*
X117976638Y-68162984D01*
X117978695Y-68164672D01*
X117980522Y-68165429D01*
X117986822Y-68169394D01*
X118082060Y-68217013D01*
X118095791Y-68222268D01*
X118098480Y-68222459D01*
X118100969Y-68223490D01*
X118115601Y-68224931D01*
X118306077Y-68224931D01*
X118320709Y-68223490D01*
X118323198Y-68222458D01*
X118325886Y-68222268D01*
X118339618Y-68217013D01*
X118434856Y-68169394D01*
X118441155Y-68165429D01*
X118442983Y-68164672D01*
X118445039Y-68162984D01*
X118447299Y-68161562D01*
X118448599Y-68160062D01*
X118454349Y-68155344D01*
X118501967Y-68107725D01*
X118506685Y-68101975D01*
X118508184Y-68100676D01*
X118509605Y-68098417D01*
X118511295Y-68096359D01*
X118512052Y-68094529D01*
X118516016Y-68088233D01*
X118563635Y-67992995D01*
X118568890Y-67979264D01*
X118569081Y-67976574D01*
X118570112Y-67974086D01*
X118571553Y-67959454D01*
X118571553Y-67578502D01*
X118850125Y-67578502D01*
X118850125Y-67721359D01*
X118850376Y-67723912D01*
X118850214Y-67725005D01*
X118851023Y-67730478D01*
X118851566Y-67735991D01*
X118851988Y-67737012D01*
X118852364Y-67739549D01*
X118899983Y-67930025D01*
X118900368Y-67931104D01*
X118900407Y-67931644D01*
X118902734Y-67937725D01*
X118904930Y-67943871D01*
X118905252Y-67944306D01*
X118905662Y-67945376D01*
X118953281Y-68040614D01*
X118957244Y-68046910D01*
X118958002Y-68048740D01*
X118959691Y-68050798D01*
X118961113Y-68053057D01*
X118962611Y-68054356D01*
X118967330Y-68060106D01*
X119062568Y-68155345D01*
X119073933Y-68164673D01*
X119076423Y-68165704D01*
X119078458Y-68167469D01*
X119091884Y-68173463D01*
X119234740Y-68221082D01*
X119241995Y-68222731D01*
X119243826Y-68223490D01*
X119246479Y-68223751D01*
X119249077Y-68224342D01*
X119251051Y-68224201D01*
X119258458Y-68224931D01*
X119496553Y-68224931D01*
X119511185Y-68223490D01*
X119538221Y-68212291D01*
X119558913Y-68191599D01*
X119570112Y-68164563D01*
X119571553Y-68149931D01*
X119571553Y-67483264D01*
X119850125Y-67483264D01*
X119850125Y-67816597D01*
X119850376Y-67819150D01*
X119850214Y-67820243D01*
X119851023Y-67825716D01*
X119851566Y-67831229D01*
X119851988Y-67832250D01*
X119852364Y-67834787D01*
X119899983Y-68025263D01*
X119904930Y-68039109D01*
X119908249Y-68043588D01*
X119910383Y-68048740D01*
X119919711Y-68060106D01*
X120014949Y-68155345D01*
X120020699Y-68160065D01*
X120021998Y-68161562D01*
X120024252Y-68162981D01*
X120026314Y-68164673D01*
X120028146Y-68165431D01*
X120034441Y-68169394D01*
X120129679Y-68217013D01*
X120143410Y-68222268D01*
X120146099Y-68222459D01*
X120148588Y-68223490D01*
X120163220Y-68224931D01*
X120353696Y-68224931D01*
X120368328Y-68223490D01*
X120370817Y-68222458D01*
X120373505Y-68222268D01*
X120387237Y-68217013D01*
X120482475Y-68169394D01*
X120488774Y-68165429D01*
X120490602Y-68164672D01*
X120492658Y-68162983D01*
X120494918Y-68161562D01*
X120496217Y-68160063D01*
X120501967Y-68155345D01*
X120597206Y-68060105D01*
X120606533Y-68048740D01*
X120608666Y-68043588D01*
X120611986Y-68039109D01*
X120616933Y-68025263D01*
X120664552Y-67834787D01*
X120664927Y-67832250D01*
X120665350Y-67831229D01*
X120665892Y-67825716D01*
X120666702Y-67820243D01*
X120666539Y-67819150D01*
X120666791Y-67816597D01*
X120666791Y-67483264D01*
X120666539Y-67480710D01*
X120666702Y-67479618D01*
X120665892Y-67474144D01*
X120665350Y-67468632D01*
X120664927Y-67467610D01*
X120664552Y-67465074D01*
X120616933Y-67274598D01*
X120611986Y-67260752D01*
X120608667Y-67256273D01*
X120606533Y-67251120D01*
X120597205Y-67239755D01*
X120507381Y-67149931D01*
X120945363Y-67149931D01*
X120945363Y-68149931D01*
X120946804Y-68164563D01*
X120958003Y-68191599D01*
X120978695Y-68212291D01*
X121005731Y-68223490D01*
X121034995Y-68223490D01*
X121062031Y-68212291D01*
X121082723Y-68191599D01*
X121093922Y-68164563D01*
X121095363Y-68149931D01*
X121095363Y-67487998D01*
X121285732Y-67895933D01*
X121288906Y-67901292D01*
X121289566Y-67903105D01*
X121290740Y-67904387D01*
X121293226Y-67908583D01*
X121301635Y-67916283D01*
X121309330Y-67924686D01*
X121312348Y-67926094D01*
X121314807Y-67928346D01*
X121325519Y-67932241D01*
X121335848Y-67937062D01*
X121339176Y-67937208D01*
X121342308Y-67938347D01*
X121353702Y-67937846D01*
X121365084Y-67938346D01*
X121368212Y-67937208D01*
X121371544Y-67937062D01*
X121381879Y-67932238D01*
X121392585Y-67928346D01*
X121395040Y-67926096D01*
X121398062Y-67924687D01*
X121405763Y-67916276D01*
X121414166Y-67908582D01*
X121416649Y-67904389D01*
X121417826Y-67903105D01*
X121418486Y-67901289D01*
X121421660Y-67895932D01*
X121612029Y-67487998D01*
X121612029Y-68149931D01*
X121613470Y-68164563D01*
X121624669Y-68191599D01*
X121645361Y-68212291D01*
X121672397Y-68223490D01*
X121701661Y-68223490D01*
X121728697Y-68212291D01*
X121749389Y-68191599D01*
X121760588Y-68164563D01*
X121762029Y-68149931D01*
X121762029Y-67230538D01*
X122803947Y-67230538D01*
X122803947Y-67259800D01*
X122815146Y-67286837D01*
X122835838Y-67307529D01*
X122862875Y-67318728D01*
X122892137Y-67318728D01*
X122919174Y-67307529D01*
X122930539Y-67298202D01*
X122965639Y-67263102D01*
X123080152Y-67224931D01*
X123151050Y-67224931D01*
X123265563Y-67263102D01*
X123339676Y-67337215D01*
X123378169Y-67414202D01*
X123421553Y-67587736D01*
X123421553Y-67712125D01*
X123378169Y-67885659D01*
X123339675Y-67962646D01*
X123265563Y-68036759D01*
X123151050Y-68074931D01*
X123080152Y-68074931D01*
X122965639Y-68036760D01*
X122930540Y-68001660D01*
X122919174Y-67992332D01*
X122892138Y-67981133D01*
X122862875Y-67981133D01*
X122835839Y-67992331D01*
X122815146Y-68013024D01*
X122803947Y-68040060D01*
X122803947Y-68069323D01*
X122815145Y-68096359D01*
X122824472Y-68107724D01*
X122872091Y-68155344D01*
X122883457Y-68164672D01*
X122885945Y-68165702D01*
X122887982Y-68167469D01*
X122901408Y-68173463D01*
X123044264Y-68221082D01*
X123051519Y-68222731D01*
X123053350Y-68223490D01*
X123056003Y-68223751D01*
X123058601Y-68224342D01*
X123060575Y-68224201D01*
X123067982Y-68224931D01*
X123163220Y-68224931D01*
X123170625Y-68224201D01*
X123172600Y-68224342D01*
X123175197Y-68223751D01*
X123177852Y-68223490D01*
X123179683Y-68222731D01*
X123186937Y-68221082D01*
X123329794Y-68173463D01*
X123343219Y-68167469D01*
X123345254Y-68165703D01*
X123347745Y-68164672D01*
X123359110Y-68155345D01*
X123454349Y-68060105D01*
X123459066Y-68054356D01*
X123460565Y-68053057D01*
X123461986Y-68050798D01*
X123463676Y-68048740D01*
X123464433Y-68046910D01*
X123468397Y-68040614D01*
X123516016Y-67945376D01*
X123516425Y-67944306D01*
X123516748Y-67943871D01*
X123518940Y-67937734D01*
X123521271Y-67931645D01*
X123521309Y-67931104D01*
X123521695Y-67930025D01*
X123569314Y-67739549D01*
X123569689Y-67737012D01*
X123570112Y-67735991D01*
X123570654Y-67730478D01*
X123571464Y-67725005D01*
X123571301Y-67723912D01*
X123571553Y-67721359D01*
X123571553Y-67578502D01*
X123802506Y-67578502D01*
X123802506Y-67721359D01*
X123802757Y-67723912D01*
X123802595Y-67725005D01*
X123803404Y-67730478D01*
X123803947Y-67735991D01*
X123804369Y-67737012D01*
X123804745Y-67739549D01*
X123852364Y-67930025D01*
X123852749Y-67931104D01*
X123852788Y-67931644D01*
X123855115Y-67937725D01*
X123857311Y-67943871D01*
X123857633Y-67944306D01*
X123858043Y-67945376D01*
X123905662Y-68040614D01*
X123909625Y-68046910D01*
X123910383Y-68048740D01*
X123912072Y-68050798D01*
X123913494Y-68053057D01*
X123914992Y-68054356D01*
X123919711Y-68060106D01*
X124014949Y-68155345D01*
X124026314Y-68164673D01*
X124028804Y-68165704D01*
X124030839Y-68167469D01*
X124044265Y-68173463D01*
X124187121Y-68221082D01*
X124194376Y-68222731D01*
X124196207Y-68223490D01*
X124198860Y-68223751D01*
X124201458Y-68224342D01*
X124203432Y-68224201D01*
X124210839Y-68224931D01*
X124448934Y-68224931D01*
X124463566Y-68223490D01*
X124490602Y-68212291D01*
X124511294Y-68191599D01*
X124522493Y-68164563D01*
X124523934Y-68149931D01*
X124523934Y-67230538D01*
X124803947Y-67230538D01*
X124803947Y-67259800D01*
X124815146Y-67286837D01*
X124835838Y-67307529D01*
X124862875Y-67318728D01*
X124892137Y-67318728D01*
X124919174Y-67307529D01*
X124930539Y-67298202D01*
X124965639Y-67263102D01*
X125080152Y-67224931D01*
X125151050Y-67224931D01*
X125265563Y-67263102D01*
X125339676Y-67337215D01*
X125378169Y-67414202D01*
X125421553Y-67587736D01*
X125421553Y-67712125D01*
X125378169Y-67885659D01*
X125339675Y-67962646D01*
X125265563Y-68036759D01*
X125151050Y-68074931D01*
X125080152Y-68074931D01*
X124965639Y-68036760D01*
X124930540Y-68001660D01*
X124919174Y-67992332D01*
X124892138Y-67981133D01*
X124862875Y-67981133D01*
X124835839Y-67992331D01*
X124815146Y-68013024D01*
X124803947Y-68040060D01*
X124803947Y-68069323D01*
X124815145Y-68096359D01*
X124824472Y-68107724D01*
X124872091Y-68155344D01*
X124883457Y-68164672D01*
X124885945Y-68165702D01*
X124887982Y-68167469D01*
X124901408Y-68173463D01*
X125044264Y-68221082D01*
X125051519Y-68222731D01*
X125053350Y-68223490D01*
X125056003Y-68223751D01*
X125058601Y-68224342D01*
X125060575Y-68224201D01*
X125067982Y-68224931D01*
X125163220Y-68224931D01*
X125170625Y-68224201D01*
X125172600Y-68224342D01*
X125175197Y-68223751D01*
X125177852Y-68223490D01*
X125179683Y-68222731D01*
X125186937Y-68221082D01*
X125329794Y-68173463D01*
X125343219Y-68167469D01*
X125345254Y-68165703D01*
X125347745Y-68164672D01*
X125359110Y-68155345D01*
X125454349Y-68060105D01*
X125459066Y-68054356D01*
X125460565Y-68053057D01*
X125461986Y-68050798D01*
X125463676Y-68048740D01*
X125464433Y-68046910D01*
X125468397Y-68040614D01*
X125516016Y-67945376D01*
X125516425Y-67944306D01*
X125516748Y-67943871D01*
X125518940Y-67937734D01*
X125521271Y-67931645D01*
X125521309Y-67931104D01*
X125521695Y-67930025D01*
X125569314Y-67739549D01*
X125569689Y-67737012D01*
X125570112Y-67735991D01*
X125570654Y-67730478D01*
X125571464Y-67725005D01*
X125571301Y-67723912D01*
X125571553Y-67721359D01*
X125571553Y-67578502D01*
X125802506Y-67578502D01*
X125802506Y-67721359D01*
X125802757Y-67723912D01*
X125802595Y-67725005D01*
X125803404Y-67730478D01*
X125803947Y-67735991D01*
X125804369Y-67737012D01*
X125804745Y-67739549D01*
X125852364Y-67930025D01*
X125852749Y-67931104D01*
X125852788Y-67931644D01*
X125855115Y-67937725D01*
X125857311Y-67943871D01*
X125857633Y-67944306D01*
X125858043Y-67945376D01*
X125905662Y-68040614D01*
X125909625Y-68046910D01*
X125910383Y-68048740D01*
X125912072Y-68050798D01*
X125913494Y-68053057D01*
X125914992Y-68054356D01*
X125919711Y-68060106D01*
X126014949Y-68155345D01*
X126026314Y-68164673D01*
X126028804Y-68165704D01*
X126030839Y-68167469D01*
X126044265Y-68173463D01*
X126187121Y-68221082D01*
X126194376Y-68222731D01*
X126196207Y-68223490D01*
X126198860Y-68223751D01*
X126201458Y-68224342D01*
X126203432Y-68224201D01*
X126210839Y-68224931D01*
X126448934Y-68224931D01*
X126463566Y-68223490D01*
X126490602Y-68212291D01*
X126511294Y-68191599D01*
X126522493Y-68164563D01*
X126523934Y-68149931D01*
X126523934Y-67721359D01*
X127564411Y-67721359D01*
X127564411Y-67959454D01*
X127565852Y-67974086D01*
X127566883Y-67976575D01*
X127567074Y-67979263D01*
X127572329Y-67992995D01*
X127619948Y-68088233D01*
X127623911Y-68094529D01*
X127624669Y-68096359D01*
X127626358Y-68098417D01*
X127627780Y-68100676D01*
X127629278Y-68101975D01*
X127633996Y-68107724D01*
X127681615Y-68155344D01*
X127687364Y-68160062D01*
X127688665Y-68161562D01*
X127690924Y-68162984D01*
X127692981Y-68164672D01*
X127694808Y-68165429D01*
X127701108Y-68169394D01*
X127796346Y-68217013D01*
X127810077Y-68222268D01*
X127812766Y-68222459D01*
X127815255Y-68223490D01*
X127829887Y-68224931D01*
X128020363Y-68224931D01*
X128034995Y-68223490D01*
X128037484Y-68222458D01*
X128040172Y-68222268D01*
X128053904Y-68217013D01*
X128149142Y-68169394D01*
X128155441Y-68165429D01*
X128157269Y-68164672D01*
X128159325Y-68162984D01*
X128161585Y-68161562D01*
X128162885Y-68160062D01*
X128168635Y-68155344D01*
X128216253Y-68107725D01*
X128220971Y-68101975D01*
X128222470Y-68100676D01*
X128223891Y-68098417D01*
X128225581Y-68096359D01*
X128226338Y-68094529D01*
X128230302Y-68088233D01*
X128277921Y-67992995D01*
X128283176Y-67979264D01*
X128283367Y-67976574D01*
X128284398Y-67974086D01*
X128285839Y-67959454D01*
X128285839Y-67721359D01*
X128516792Y-67721359D01*
X128516792Y-67959454D01*
X128518233Y-67974086D01*
X128519264Y-67976575D01*
X128519455Y-67979263D01*
X128524710Y-67992995D01*
X128572329Y-68088233D01*
X128576292Y-68094529D01*
X128577050Y-68096359D01*
X128578739Y-68098417D01*
X128580161Y-68100676D01*
X128581659Y-68101975D01*
X128586377Y-68107724D01*
X128633996Y-68155344D01*
X128639745Y-68160062D01*
X128641046Y-68161562D01*
X128643305Y-68162984D01*
X128645362Y-68164672D01*
X128647189Y-68165429D01*
X128653489Y-68169394D01*
X128748727Y-68217013D01*
X128762458Y-68222268D01*
X128765147Y-68222459D01*
X128767636Y-68223490D01*
X128782268Y-68224931D01*
X129067982Y-68224931D01*
X129082614Y-68223490D01*
X129085103Y-68222458D01*
X129087791Y-68222268D01*
X129101523Y-68217013D01*
X129196761Y-68169394D01*
X129203060Y-68165429D01*
X129204888Y-68164672D01*
X129206944Y-68162984D01*
X129209204Y-68161562D01*
X129210504Y-68160062D01*
X129216254Y-68155344D01*
X129263872Y-68107725D01*
X129273200Y-68096359D01*
X129284398Y-68069323D01*
X129284398Y-68040060D01*
X129273199Y-68013024D01*
X129252506Y-67992331D01*
X129225470Y-67981133D01*
X129196207Y-67981133D01*
X129169171Y-67992332D01*
X129157805Y-68001660D01*
X129118792Y-68040673D01*
X129050277Y-68074931D01*
X128799973Y-68074931D01*
X128731457Y-68040673D01*
X128701050Y-68010265D01*
X128666792Y-67941749D01*
X128666792Y-67739064D01*
X128701050Y-67670548D01*
X128731457Y-67640141D01*
X128799973Y-67605883D01*
X128925125Y-67605883D01*
X128932863Y-67605120D01*
X128934831Y-67605252D01*
X128936186Y-67604793D01*
X128939757Y-67604442D01*
X128951014Y-67599778D01*
X128962552Y-67595877D01*
X128964456Y-67594211D01*
X128966793Y-67593243D01*
X128975403Y-67584632D01*
X128984576Y-67576607D01*
X128985698Y-67574337D01*
X128987485Y-67572551D01*
X128992145Y-67561300D01*
X128997548Y-67550375D01*
X128997716Y-67547851D01*
X128998684Y-67545515D01*
X128998684Y-67533330D01*
X128999494Y-67521177D01*
X128998684Y-67518781D01*
X128998684Y-67516251D01*
X128994020Y-67504993D01*
X128990119Y-67493456D01*
X128988033Y-67490538D01*
X128987485Y-67489215D01*
X128986089Y-67487819D01*
X128981568Y-67481495D01*
X128858116Y-67340407D01*
X129469173Y-67340407D01*
X129469173Y-67435645D01*
X129469902Y-67443050D01*
X129469762Y-67445025D01*
X129470352Y-67447622D01*
X129470614Y-67450277D01*
X129471372Y-67452108D01*
X129473022Y-67459362D01*
X129520641Y-67602219D01*
X129526635Y-67615644D01*
X129528400Y-67617679D01*
X129529432Y-67620170D01*
X129538759Y-67631535D01*
X129982154Y-68074931D01*
X129544173Y-68074931D01*
X129529541Y-68076372D01*
X129502505Y-68087571D01*
X129481813Y-68108263D01*
X129470614Y-68135299D01*
X129470614Y-68164563D01*
X129481813Y-68191599D01*
X129502505Y-68212291D01*
X129529541Y-68223490D01*
X129544173Y-68224931D01*
X130163220Y-68224931D01*
X130177852Y-68223490D01*
X130185770Y-68220210D01*
X130204888Y-68212292D01*
X130225580Y-68191599D01*
X130236779Y-68164563D01*
X130236779Y-68135300D01*
X130225581Y-68108263D01*
X130216253Y-68096898D01*
X129657344Y-67537988D01*
X129619173Y-67423474D01*
X129619173Y-67358112D01*
X129628026Y-67340407D01*
X130421554Y-67340407D01*
X130421554Y-67435645D01*
X130422283Y-67443050D01*
X130422143Y-67445025D01*
X130422733Y-67447622D01*
X130422995Y-67450277D01*
X130423753Y-67452108D01*
X130425403Y-67459362D01*
X130473022Y-67602219D01*
X130479016Y-67615644D01*
X130480781Y-67617679D01*
X130481813Y-67620170D01*
X130491140Y-67631535D01*
X130934535Y-68074931D01*
X130496554Y-68074931D01*
X130481922Y-68076372D01*
X130454886Y-68087571D01*
X130434194Y-68108263D01*
X130422995Y-68135299D01*
X130422995Y-68164563D01*
X130434194Y-68191599D01*
X130454886Y-68212291D01*
X130481922Y-68223490D01*
X130496554Y-68224931D01*
X131115601Y-68224931D01*
X131130233Y-68223490D01*
X131138151Y-68220210D01*
X131157269Y-68212292D01*
X131177961Y-68191599D01*
X131189160Y-68164563D01*
X131189160Y-68135300D01*
X131177962Y-68108263D01*
X131168634Y-68096898D01*
X130609725Y-67537988D01*
X130571554Y-67423474D01*
X130571554Y-67358112D01*
X130580407Y-67340407D01*
X131373935Y-67340407D01*
X131373935Y-67483264D01*
X131375376Y-67497896D01*
X131376407Y-67500385D01*
X131376598Y-67503073D01*
X131381853Y-67516805D01*
X131429472Y-67612043D01*
X131433436Y-67618342D01*
X131434194Y-67620170D01*
X131435882Y-67622226D01*
X131437304Y-67624486D01*
X131438802Y-67625785D01*
X131443521Y-67631535D01*
X131491140Y-67679154D01*
X131496889Y-67683872D01*
X131498189Y-67685371D01*
X131500448Y-67686792D01*
X131502505Y-67688481D01*
X131504332Y-67689238D01*
X131510632Y-67693203D01*
X131605870Y-67740822D01*
X131619601Y-67746077D01*
X131622290Y-67746268D01*
X131624779Y-67747299D01*
X131639411Y-67748740D01*
X131945363Y-67748740D01*
X131945363Y-68149931D01*
X131946804Y-68164563D01*
X131958003Y-68191599D01*
X131978695Y-68212291D01*
X132005731Y-68223490D01*
X132034995Y-68223490D01*
X132062031Y-68212291D01*
X132082723Y-68191599D01*
X132093922Y-68164563D01*
X132095363Y-68149931D01*
X132095363Y-67149931D01*
X132421554Y-67149931D01*
X132421554Y-68149931D01*
X132422995Y-68164563D01*
X132434194Y-68191599D01*
X132454886Y-68212291D01*
X132481922Y-68223490D01*
X132511186Y-68223490D01*
X132538222Y-68212291D01*
X132558914Y-68191599D01*
X132570113Y-68164563D01*
X132571554Y-68149931D01*
X132571554Y-67487998D01*
X132761923Y-67895933D01*
X132765097Y-67901292D01*
X132765757Y-67903105D01*
X132766931Y-67904387D01*
X132769417Y-67908583D01*
X132777826Y-67916283D01*
X132785521Y-67924686D01*
X132788539Y-67926094D01*
X132790998Y-67928346D01*
X132801710Y-67932241D01*
X132812039Y-67937062D01*
X132815367Y-67937208D01*
X132818499Y-67938347D01*
X132829893Y-67937846D01*
X132841275Y-67938346D01*
X132844403Y-67937208D01*
X132847735Y-67937062D01*
X132858070Y-67932238D01*
X132868776Y-67928346D01*
X132871231Y-67926096D01*
X132874253Y-67924687D01*
X132881954Y-67916276D01*
X132890357Y-67908582D01*
X132892840Y-67904389D01*
X132894017Y-67903105D01*
X132894677Y-67901289D01*
X132897851Y-67895932D01*
X133088220Y-67487998D01*
X133088220Y-68149931D01*
X133089661Y-68164563D01*
X133100860Y-68191599D01*
X133121552Y-68212291D01*
X133148588Y-68223490D01*
X133177852Y-68223490D01*
X133204888Y-68212291D01*
X133225580Y-68191599D01*
X133236779Y-68164563D01*
X133238220Y-68149931D01*
X133238220Y-67149931D01*
X133237272Y-67140309D01*
X133237350Y-67138543D01*
X133237005Y-67137594D01*
X133236779Y-67135299D01*
X133231797Y-67123272D01*
X133227350Y-67111042D01*
X133226220Y-67109808D01*
X133225580Y-67108263D01*
X133216380Y-67099063D01*
X133207586Y-67089460D01*
X133206069Y-67088752D01*
X133204888Y-67087571D01*
X133192875Y-67082594D01*
X133181068Y-67077085D01*
X133179395Y-67077011D01*
X133177852Y-67076372D01*
X133164846Y-67076372D01*
X133151832Y-67075800D01*
X133150259Y-67076372D01*
X133148588Y-67076372D01*
X133136569Y-67081350D01*
X133124331Y-67085801D01*
X133123097Y-67086931D01*
X133121552Y-67087571D01*
X133112353Y-67096769D01*
X133102750Y-67105564D01*
X133101574Y-67107548D01*
X133100860Y-67108263D01*
X133100183Y-67109896D01*
X133095256Y-67118214D01*
X132829886Y-67686862D01*
X132564518Y-67118215D01*
X132559592Y-67109899D01*
X132558914Y-67108263D01*
X132558198Y-67107547D01*
X132557024Y-67105565D01*
X132547427Y-67096776D01*
X132538222Y-67087571D01*
X132536676Y-67086930D01*
X132535443Y-67085801D01*
X132523212Y-67081353D01*
X132511186Y-67076372D01*
X132509512Y-67076372D01*
X132507942Y-67075801D01*
X132494941Y-67076372D01*
X132481922Y-67076372D01*
X132480377Y-67077011D01*
X132478706Y-67077085D01*
X132466907Y-67082591D01*
X132454886Y-67087571D01*
X132453703Y-67088753D01*
X132452188Y-67089461D01*
X132443399Y-67099057D01*
X132434194Y-67108263D01*
X132433553Y-67109808D01*
X132432424Y-67111042D01*
X132427976Y-67123272D01*
X132422995Y-67135299D01*
X132422768Y-67137594D01*
X132422424Y-67138543D01*
X132422501Y-67140309D01*
X132421554Y-67149931D01*
X132095363Y-67149931D01*
X132093922Y-67135299D01*
X132082723Y-67108263D01*
X132062031Y-67087571D01*
X132034995Y-67076372D01*
X132020363Y-67074931D01*
X131639411Y-67074931D01*
X131624779Y-67076372D01*
X131622290Y-67077402D01*
X131619601Y-67077594D01*
X131605870Y-67082849D01*
X131510632Y-67130468D01*
X131504332Y-67134432D01*
X131502505Y-67135190D01*
X131500448Y-67136878D01*
X131498189Y-67138300D01*
X131496889Y-67139798D01*
X131491140Y-67144517D01*
X131443521Y-67192136D01*
X131438802Y-67197885D01*
X131437304Y-67199185D01*
X131435882Y-67201444D01*
X131434194Y-67203501D01*
X131433436Y-67205328D01*
X131429472Y-67211628D01*
X131381853Y-67306866D01*
X131376598Y-67320598D01*
X131376407Y-67323285D01*
X131375376Y-67325775D01*
X131373935Y-67340407D01*
X130580407Y-67340407D01*
X130605812Y-67289596D01*
X130636219Y-67259189D01*
X130704735Y-67224931D01*
X130907420Y-67224931D01*
X130975936Y-67259189D01*
X131014949Y-67298202D01*
X131026314Y-67307529D01*
X131053350Y-67318728D01*
X131082613Y-67318728D01*
X131109649Y-67307529D01*
X131130342Y-67286836D01*
X131141541Y-67259800D01*
X131141541Y-67230537D01*
X131130342Y-67203501D01*
X131121015Y-67192136D01*
X131073396Y-67144517D01*
X131067646Y-67139798D01*
X131066347Y-67138300D01*
X131064087Y-67136878D01*
X131062031Y-67135190D01*
X131060203Y-67134432D01*
X131053904Y-67130468D01*
X130958666Y-67082849D01*
X130944934Y-67077594D01*
X130942246Y-67077403D01*
X130939757Y-67076372D01*
X130925125Y-67074931D01*
X130687030Y-67074931D01*
X130672398Y-67076372D01*
X130669909Y-67077402D01*
X130667220Y-67077594D01*
X130653489Y-67082849D01*
X130558251Y-67130468D01*
X130551951Y-67134432D01*
X130550124Y-67135190D01*
X130548067Y-67136878D01*
X130545808Y-67138300D01*
X130544508Y-67139798D01*
X130538759Y-67144517D01*
X130491140Y-67192136D01*
X130486421Y-67197885D01*
X130484923Y-67199185D01*
X130483501Y-67201444D01*
X130481813Y-67203501D01*
X130481055Y-67205328D01*
X130477091Y-67211628D01*
X130429472Y-67306866D01*
X130424217Y-67320598D01*
X130424026Y-67323285D01*
X130422995Y-67325775D01*
X130421554Y-67340407D01*
X129628026Y-67340407D01*
X129653431Y-67289596D01*
X129683838Y-67259189D01*
X129752354Y-67224931D01*
X129955039Y-67224931D01*
X130023555Y-67259189D01*
X130062568Y-67298202D01*
X130073933Y-67307529D01*
X130100969Y-67318728D01*
X130130232Y-67318728D01*
X130157268Y-67307529D01*
X130177961Y-67286836D01*
X130189160Y-67259800D01*
X130189160Y-67230537D01*
X130177961Y-67203501D01*
X130168634Y-67192136D01*
X130121015Y-67144517D01*
X130115265Y-67139798D01*
X130113966Y-67138300D01*
X130111706Y-67136878D01*
X130109650Y-67135190D01*
X130107822Y-67134432D01*
X130101523Y-67130468D01*
X130006285Y-67082849D01*
X129992553Y-67077594D01*
X129989865Y-67077403D01*
X129987376Y-67076372D01*
X129972744Y-67074931D01*
X129734649Y-67074931D01*
X129720017Y-67076372D01*
X129717528Y-67077402D01*
X129714839Y-67077594D01*
X129701108Y-67082849D01*
X129605870Y-67130468D01*
X129599570Y-67134432D01*
X129597743Y-67135190D01*
X129595686Y-67136878D01*
X129593427Y-67138300D01*
X129592127Y-67139798D01*
X129586378Y-67144517D01*
X129538759Y-67192136D01*
X129534040Y-67197885D01*
X129532542Y-67199185D01*
X129531120Y-67201444D01*
X129529432Y-67203501D01*
X129528674Y-67205328D01*
X129524710Y-67211628D01*
X129477091Y-67306866D01*
X129471836Y-67320598D01*
X129471645Y-67323285D01*
X129470614Y-67325775D01*
X129469173Y-67340407D01*
X128858116Y-67340407D01*
X128757074Y-67224931D01*
X129210839Y-67224931D01*
X129225471Y-67223490D01*
X129252507Y-67212291D01*
X129273199Y-67191599D01*
X129284398Y-67164563D01*
X129284398Y-67135299D01*
X129273199Y-67108263D01*
X129252507Y-67087571D01*
X129225471Y-67076372D01*
X129210839Y-67074931D01*
X128591792Y-67074931D01*
X128584053Y-67075693D01*
X128582086Y-67075562D01*
X128580730Y-67076020D01*
X128577160Y-67076372D01*
X128565902Y-67081035D01*
X128554365Y-67084937D01*
X128552460Y-67086602D01*
X128550124Y-67087571D01*
X128541513Y-67096181D01*
X128532341Y-67104207D01*
X128531218Y-67106476D01*
X128529432Y-67108263D01*
X128524771Y-67119513D01*
X128519369Y-67130439D01*
X128519200Y-67132962D01*
X128518233Y-67135299D01*
X128518233Y-67147483D01*
X128517423Y-67159637D01*
X128518233Y-67162032D01*
X128518233Y-67164563D01*
X128522896Y-67175820D01*
X128526798Y-67187358D01*
X128528883Y-67190275D01*
X128529432Y-67191599D01*
X128530827Y-67192994D01*
X128535349Y-67199319D01*
X128762244Y-67458627D01*
X128748727Y-67463801D01*
X128653489Y-67511420D01*
X128647189Y-67515384D01*
X128645362Y-67516142D01*
X128643305Y-67517830D01*
X128641046Y-67519252D01*
X128639746Y-67520750D01*
X128633997Y-67525469D01*
X128586378Y-67573088D01*
X128581659Y-67578837D01*
X128580161Y-67580137D01*
X128578739Y-67582396D01*
X128577051Y-67584453D01*
X128576293Y-67586280D01*
X128572329Y-67592580D01*
X128524710Y-67687818D01*
X128519455Y-67701550D01*
X128519264Y-67704237D01*
X128518233Y-67706727D01*
X128516792Y-67721359D01*
X128285839Y-67721359D01*
X128285839Y-67578502D01*
X128285587Y-67575948D01*
X128285750Y-67574856D01*
X128284940Y-67569382D01*
X128284398Y-67563870D01*
X128283975Y-67562848D01*
X128283600Y-67560312D01*
X128235981Y-67369836D01*
X128232899Y-67361212D01*
X128232541Y-67359398D01*
X128231663Y-67357752D01*
X128231034Y-67355990D01*
X128229928Y-67354498D01*
X128225624Y-67346424D01*
X128130386Y-67203566D01*
X128130351Y-67203523D01*
X128130342Y-67203501D01*
X128125853Y-67198032D01*
X128121070Y-67192191D01*
X128121048Y-67192176D01*
X128121015Y-67192136D01*
X128073396Y-67144517D01*
X128067646Y-67139798D01*
X128066347Y-67138300D01*
X128064087Y-67136878D01*
X128062031Y-67135190D01*
X128060203Y-67134432D01*
X128053904Y-67130468D01*
X127958666Y-67082849D01*
X127944934Y-67077594D01*
X127942246Y-67077403D01*
X127939757Y-67076372D01*
X127925125Y-67074931D01*
X127734649Y-67074931D01*
X127720017Y-67076372D01*
X127692981Y-67087571D01*
X127672289Y-67108263D01*
X127661090Y-67135299D01*
X127661090Y-67164563D01*
X127672289Y-67191599D01*
X127692981Y-67212291D01*
X127720017Y-67223490D01*
X127734649Y-67224931D01*
X127907420Y-67224931D01*
X127975936Y-67259189D01*
X128009696Y-67292949D01*
X128093610Y-67418820D01*
X128112134Y-67492916D01*
X128053904Y-67463801D01*
X128040172Y-67458546D01*
X128037484Y-67458355D01*
X128034995Y-67457324D01*
X128020363Y-67455883D01*
X127829887Y-67455883D01*
X127815255Y-67457324D01*
X127812766Y-67458354D01*
X127810077Y-67458546D01*
X127796346Y-67463801D01*
X127701108Y-67511420D01*
X127694808Y-67515384D01*
X127692981Y-67516142D01*
X127690924Y-67517830D01*
X127688665Y-67519252D01*
X127687365Y-67520750D01*
X127681616Y-67525469D01*
X127633997Y-67573088D01*
X127629278Y-67578837D01*
X127627780Y-67580137D01*
X127626358Y-67582396D01*
X127624670Y-67584453D01*
X127623912Y-67586280D01*
X127619948Y-67592580D01*
X127572329Y-67687818D01*
X127567074Y-67701550D01*
X127566883Y-67704237D01*
X127565852Y-67706727D01*
X127564411Y-67721359D01*
X126523934Y-67721359D01*
X126523934Y-67149931D01*
X126522493Y-67135299D01*
X126511294Y-67108263D01*
X126490602Y-67087571D01*
X126463566Y-67076372D01*
X126448934Y-67074931D01*
X126210839Y-67074931D01*
X126203432Y-67075660D01*
X126201458Y-67075520D01*
X126198860Y-67076110D01*
X126196207Y-67076372D01*
X126194376Y-67077130D01*
X126187121Y-67078780D01*
X126044265Y-67126399D01*
X126030839Y-67132393D01*
X126028804Y-67134157D01*
X126026314Y-67135189D01*
X126014949Y-67144517D01*
X125919711Y-67239755D01*
X125914992Y-67245504D01*
X125913494Y-67246804D01*
X125912072Y-67249063D01*
X125910384Y-67251120D01*
X125909626Y-67252947D01*
X125905662Y-67259247D01*
X125858043Y-67354485D01*
X125857633Y-67355554D01*
X125857311Y-67355990D01*
X125855115Y-67362135D01*
X125852788Y-67368217D01*
X125852749Y-67368756D01*
X125852364Y-67369836D01*
X125804745Y-67560312D01*
X125804369Y-67562848D01*
X125803947Y-67563870D01*
X125803404Y-67569382D01*
X125802595Y-67574856D01*
X125802757Y-67575948D01*
X125802506Y-67578502D01*
X125571553Y-67578502D01*
X125571301Y-67575948D01*
X125571464Y-67574856D01*
X125570654Y-67569382D01*
X125570112Y-67563870D01*
X125569689Y-67562848D01*
X125569314Y-67560312D01*
X125521695Y-67369836D01*
X125521309Y-67368756D01*
X125521271Y-67368216D01*
X125518940Y-67362126D01*
X125516748Y-67355990D01*
X125516425Y-67355554D01*
X125516016Y-67354485D01*
X125468397Y-67259247D01*
X125464434Y-67252952D01*
X125463676Y-67251120D01*
X125461984Y-67249058D01*
X125460565Y-67246804D01*
X125459068Y-67245505D01*
X125454348Y-67239755D01*
X125359110Y-67144517D01*
X125347745Y-67135190D01*
X125345254Y-67134158D01*
X125343219Y-67132393D01*
X125329794Y-67126399D01*
X125186937Y-67078780D01*
X125179683Y-67077130D01*
X125177852Y-67076372D01*
X125175197Y-67076110D01*
X125172600Y-67075520D01*
X125170625Y-67075660D01*
X125163220Y-67074931D01*
X125067982Y-67074931D01*
X125060575Y-67075660D01*
X125058601Y-67075520D01*
X125056003Y-67076110D01*
X125053350Y-67076372D01*
X125051519Y-67077130D01*
X125044264Y-67078780D01*
X124901408Y-67126399D01*
X124887982Y-67132393D01*
X124885945Y-67134159D01*
X124883457Y-67135190D01*
X124872092Y-67144517D01*
X124824473Y-67192136D01*
X124815146Y-67203501D01*
X124803947Y-67230538D01*
X124523934Y-67230538D01*
X124523934Y-67149931D01*
X124522493Y-67135299D01*
X124511294Y-67108263D01*
X124490602Y-67087571D01*
X124463566Y-67076372D01*
X124448934Y-67074931D01*
X124210839Y-67074931D01*
X124203432Y-67075660D01*
X124201458Y-67075520D01*
X124198860Y-67076110D01*
X124196207Y-67076372D01*
X124194376Y-67077130D01*
X124187121Y-67078780D01*
X124044265Y-67126399D01*
X124030839Y-67132393D01*
X124028804Y-67134157D01*
X124026314Y-67135189D01*
X124014949Y-67144517D01*
X123919711Y-67239755D01*
X123914992Y-67245504D01*
X123913494Y-67246804D01*
X123912072Y-67249063D01*
X123910384Y-67251120D01*
X123909626Y-67252947D01*
X123905662Y-67259247D01*
X123858043Y-67354485D01*
X123857633Y-67355554D01*
X123857311Y-67355990D01*
X123855115Y-67362135D01*
X123852788Y-67368217D01*
X123852749Y-67368756D01*
X123852364Y-67369836D01*
X123804745Y-67560312D01*
X123804369Y-67562848D01*
X123803947Y-67563870D01*
X123803404Y-67569382D01*
X123802595Y-67574856D01*
X123802757Y-67575948D01*
X123802506Y-67578502D01*
X123571553Y-67578502D01*
X123571301Y-67575948D01*
X123571464Y-67574856D01*
X123570654Y-67569382D01*
X123570112Y-67563870D01*
X123569689Y-67562848D01*
X123569314Y-67560312D01*
X123521695Y-67369836D01*
X123521309Y-67368756D01*
X123521271Y-67368216D01*
X123518940Y-67362126D01*
X123516748Y-67355990D01*
X123516425Y-67355554D01*
X123516016Y-67354485D01*
X123468397Y-67259247D01*
X123464434Y-67252952D01*
X123463676Y-67251120D01*
X123461984Y-67249058D01*
X123460565Y-67246804D01*
X123459068Y-67245505D01*
X123454348Y-67239755D01*
X123359110Y-67144517D01*
X123347745Y-67135190D01*
X123345254Y-67134158D01*
X123343219Y-67132393D01*
X123329794Y-67126399D01*
X123186937Y-67078780D01*
X123179683Y-67077130D01*
X123177852Y-67076372D01*
X123175197Y-67076110D01*
X123172600Y-67075520D01*
X123170625Y-67075660D01*
X123163220Y-67074931D01*
X123067982Y-67074931D01*
X123060575Y-67075660D01*
X123058601Y-67075520D01*
X123056003Y-67076110D01*
X123053350Y-67076372D01*
X123051519Y-67077130D01*
X123044264Y-67078780D01*
X122901408Y-67126399D01*
X122887982Y-67132393D01*
X122885945Y-67134159D01*
X122883457Y-67135190D01*
X122872092Y-67144517D01*
X122824473Y-67192136D01*
X122815146Y-67203501D01*
X122803947Y-67230538D01*
X121762029Y-67230538D01*
X121762029Y-67149931D01*
X121761081Y-67140309D01*
X121761159Y-67138543D01*
X121760814Y-67137594D01*
X121760588Y-67135299D01*
X121755606Y-67123272D01*
X121751159Y-67111042D01*
X121750029Y-67109808D01*
X121749389Y-67108263D01*
X121740189Y-67099063D01*
X121731395Y-67089460D01*
X121729878Y-67088752D01*
X121728697Y-67087571D01*
X121716684Y-67082594D01*
X121704877Y-67077085D01*
X121703204Y-67077011D01*
X121701661Y-67076372D01*
X121688655Y-67076372D01*
X121675641Y-67075800D01*
X121674068Y-67076372D01*
X121672397Y-67076372D01*
X121660378Y-67081350D01*
X121648140Y-67085801D01*
X121646906Y-67086931D01*
X121645361Y-67087571D01*
X121636162Y-67096769D01*
X121626559Y-67105564D01*
X121625383Y-67107548D01*
X121624669Y-67108263D01*
X121623992Y-67109896D01*
X121619065Y-67118214D01*
X121353695Y-67686862D01*
X121088327Y-67118215D01*
X121083401Y-67109899D01*
X121082723Y-67108263D01*
X121082007Y-67107547D01*
X121080833Y-67105565D01*
X121071236Y-67096776D01*
X121062031Y-67087571D01*
X121060485Y-67086930D01*
X121059252Y-67085801D01*
X121047021Y-67081353D01*
X121034995Y-67076372D01*
X121033321Y-67076372D01*
X121031751Y-67075801D01*
X121018750Y-67076372D01*
X121005731Y-67076372D01*
X121004186Y-67077011D01*
X121002515Y-67077085D01*
X120990716Y-67082591D01*
X120978695Y-67087571D01*
X120977512Y-67088753D01*
X120975997Y-67089461D01*
X120967208Y-67099057D01*
X120958003Y-67108263D01*
X120957362Y-67109808D01*
X120956233Y-67111042D01*
X120951785Y-67123272D01*
X120946804Y-67135299D01*
X120946577Y-67137594D01*
X120946233Y-67138543D01*
X120946310Y-67140309D01*
X120945363Y-67149931D01*
X120507381Y-67149931D01*
X120501967Y-67144517D01*
X120496217Y-67139798D01*
X120494918Y-67138300D01*
X120492658Y-67136878D01*
X120490602Y-67135190D01*
X120488774Y-67134432D01*
X120482475Y-67130468D01*
X120387237Y-67082849D01*
X120373505Y-67077594D01*
X120370817Y-67077403D01*
X120368328Y-67076372D01*
X120353696Y-67074931D01*
X120163220Y-67074931D01*
X120148588Y-67076372D01*
X120146099Y-67077402D01*
X120143410Y-67077594D01*
X120129679Y-67082849D01*
X120034441Y-67130468D01*
X120028146Y-67134430D01*
X120026314Y-67135189D01*
X120024252Y-67136880D01*
X120021998Y-67138300D01*
X120020699Y-67139796D01*
X120014949Y-67144517D01*
X119919711Y-67239755D01*
X119910384Y-67251120D01*
X119908250Y-67256270D01*
X119904930Y-67260752D01*
X119899983Y-67274598D01*
X119852364Y-67465074D01*
X119851988Y-67467610D01*
X119851566Y-67468632D01*
X119851023Y-67474144D01*
X119850214Y-67479618D01*
X119850376Y-67480710D01*
X119850125Y-67483264D01*
X119571553Y-67483264D01*
X119571553Y-67149931D01*
X119570112Y-67135299D01*
X119558913Y-67108263D01*
X119538221Y-67087571D01*
X119511185Y-67076372D01*
X119496553Y-67074931D01*
X119258458Y-67074931D01*
X119251051Y-67075660D01*
X119249077Y-67075520D01*
X119246479Y-67076110D01*
X119243826Y-67076372D01*
X119241995Y-67077130D01*
X119234740Y-67078780D01*
X119091884Y-67126399D01*
X119078458Y-67132393D01*
X119076423Y-67134157D01*
X119073933Y-67135189D01*
X119062568Y-67144517D01*
X118967330Y-67239755D01*
X118962611Y-67245504D01*
X118961113Y-67246804D01*
X118959691Y-67249063D01*
X118958003Y-67251120D01*
X118957245Y-67252947D01*
X118953281Y-67259247D01*
X118905662Y-67354485D01*
X118905252Y-67355554D01*
X118904930Y-67355990D01*
X118902734Y-67362135D01*
X118900407Y-67368217D01*
X118900368Y-67368756D01*
X118899983Y-67369836D01*
X118852364Y-67560312D01*
X118851988Y-67562848D01*
X118851566Y-67563870D01*
X118851023Y-67569382D01*
X118850214Y-67574856D01*
X118850376Y-67575948D01*
X118850125Y-67578502D01*
X118571553Y-67578502D01*
X118571553Y-67149931D01*
X118570112Y-67135299D01*
X118558913Y-67108263D01*
X118538221Y-67087571D01*
X118511185Y-67076372D01*
X118481921Y-67076372D01*
X118454885Y-67087571D01*
X118434193Y-67108263D01*
X118422994Y-67135299D01*
X118421553Y-67149931D01*
X118421553Y-67941749D01*
X118387294Y-68010265D01*
X118356887Y-68040673D01*
X118288372Y-68074931D01*
X118133306Y-68074931D01*
X118064790Y-68040673D01*
X118034383Y-68010265D01*
X118000125Y-67941749D01*
X118000125Y-67149931D01*
X117998684Y-67135299D01*
X117987485Y-67108263D01*
X117966793Y-67087571D01*
X117939757Y-67076372D01*
X117910493Y-67076372D01*
X117883457Y-67087571D01*
X117862765Y-67108263D01*
X117851566Y-67135299D01*
X117850125Y-67149931D01*
X117523934Y-67149931D01*
X117522493Y-67135299D01*
X117511294Y-67108263D01*
X117490602Y-67087571D01*
X117463566Y-67076372D01*
X117434302Y-67076372D01*
X117407266Y-67087571D01*
X117386574Y-67108263D01*
X117375375Y-67135299D01*
X117373934Y-67149931D01*
X117373934Y-68074931D01*
X116972744Y-68074931D01*
X116958112Y-68076372D01*
X116931076Y-68087571D01*
X116910384Y-68108263D01*
X116899185Y-68135299D01*
X116714410Y-68135299D01*
X116714410Y-67149931D01*
X116712969Y-67135299D01*
X116701770Y-67108263D01*
X116681078Y-67087571D01*
X116654042Y-67076372D01*
X116639410Y-67074931D01*
X116163220Y-67074931D01*
X116148588Y-67076372D01*
X116121552Y-67087571D01*
X116100860Y-67108263D01*
X116089661Y-67135299D01*
X115978550Y-67135299D01*
X115978550Y-66963820D01*
X133491599Y-66963820D01*
X133491599Y-71555930D01*
G37*
X139163220Y-73988866D02*
X138401316Y-73988866D01*
X138782268Y-74369819D02*
X138782268Y-73607914D01*
X138067982Y-73369819D02*
X137734649Y-74369819D01*
X137734649Y-74369819D02*
X137401316Y-73369819D01*
X136877506Y-73369819D02*
X136687030Y-73369819D01*
X136687030Y-73369819D02*
X136591792Y-73417438D01*
X136591792Y-73417438D02*
X136496554Y-73512676D01*
X136496554Y-73512676D02*
X136448935Y-73703152D01*
X136448935Y-73703152D02*
X136448935Y-74036485D01*
X136448935Y-74036485D02*
X136496554Y-74226961D01*
X136496554Y-74226961D02*
X136591792Y-74322200D01*
X136591792Y-74322200D02*
X136687030Y-74369819D01*
X136687030Y-74369819D02*
X136877506Y-74369819D01*
X136877506Y-74369819D02*
X136972744Y-74322200D01*
X136972744Y-74322200D02*
X137067982Y-74226961D01*
X137067982Y-74226961D02*
X137115601Y-74036485D01*
X137115601Y-74036485D02*
X137115601Y-73703152D01*
X137115601Y-73703152D02*
X137067982Y-73512676D01*
X137067982Y-73512676D02*
X136972744Y-73417438D01*
X136972744Y-73417438D02*
X136877506Y-73369819D01*
X136020363Y-73369819D02*
X136020363Y-74179342D01*
X136020363Y-74179342D02*
X135972744Y-74274580D01*
X135972744Y-74274580D02*
X135925125Y-74322200D01*
X135925125Y-74322200D02*
X135829887Y-74369819D01*
X135829887Y-74369819D02*
X135639411Y-74369819D01*
X135639411Y-74369819D02*
X135544173Y-74322200D01*
X135544173Y-74322200D02*
X135496554Y-74274580D01*
X135496554Y-74274580D02*
X135448935Y-74179342D01*
X135448935Y-74179342D02*
X135448935Y-73369819D01*
X135115601Y-73369819D02*
X134544173Y-73369819D01*
X134829887Y-74369819D02*
X134829887Y-73369819D01*
X113139411Y-65667438D02*
X113234649Y-65619819D01*
X113234649Y-65619819D02*
X113377506Y-65619819D01*
X113377506Y-65619819D02*
X113520363Y-65667438D01*
X113520363Y-65667438D02*
X113615601Y-65762676D01*
X113615601Y-65762676D02*
X113663220Y-65857914D01*
X113663220Y-65857914D02*
X113710839Y-66048390D01*
X113710839Y-66048390D02*
X113710839Y-66191247D01*
X113710839Y-66191247D02*
X113663220Y-66381723D01*
X113663220Y-66381723D02*
X113615601Y-66476961D01*
X113615601Y-66476961D02*
X113520363Y-66572200D01*
X113520363Y-66572200D02*
X113377506Y-66619819D01*
X113377506Y-66619819D02*
X113282268Y-66619819D01*
X113282268Y-66619819D02*
X113139411Y-66572200D01*
X113139411Y-66572200D02*
X113091792Y-66524580D01*
X113091792Y-66524580D02*
X113091792Y-66191247D01*
X113091792Y-66191247D02*
X113282268Y-66191247D01*
X112663220Y-66619819D02*
X112663220Y-65619819D01*
X112663220Y-65619819D02*
X112091792Y-66619819D01*
X112091792Y-66619819D02*
X112091792Y-65619819D01*
X111615601Y-66619819D02*
X111615601Y-65619819D01*
X111615601Y-65619819D02*
X111377506Y-65619819D01*
X111377506Y-65619819D02*
X111234649Y-65667438D01*
X111234649Y-65667438D02*
X111139411Y-65762676D01*
X111139411Y-65762676D02*
X111091792Y-65857914D01*
X111091792Y-65857914D02*
X111044173Y-66048390D01*
X111044173Y-66048390D02*
X111044173Y-66191247D01*
X111044173Y-66191247D02*
X111091792Y-66381723D01*
X111091792Y-66381723D02*
X111139411Y-66476961D01*
X111139411Y-66476961D02*
X111234649Y-66572200D01*
X111234649Y-66572200D02*
X111377506Y-66619819D01*
X111377506Y-66619819D02*
X111615601Y-66619819D01*
X113913220Y-73738866D02*
X113151316Y-73738866D01*
X113532268Y-74119819D02*
X113532268Y-73357914D01*
X112817982Y-73119819D02*
X112484649Y-74119819D01*
X112484649Y-74119819D02*
X112151316Y-73119819D01*
X111817982Y-74119819D02*
X111817982Y-73119819D01*
X111341792Y-74119819D02*
X111341792Y-73119819D01*
X111341792Y-73119819D02*
X110770364Y-74119819D01*
X110770364Y-74119819D02*
X110770364Y-73119819D01*
X138139411Y-65667438D02*
X138234649Y-65619819D01*
X138234649Y-65619819D02*
X138377506Y-65619819D01*
X138377506Y-65619819D02*
X138520363Y-65667438D01*
X138520363Y-65667438D02*
X138615601Y-65762676D01*
X138615601Y-65762676D02*
X138663220Y-65857914D01*
X138663220Y-65857914D02*
X138710839Y-66048390D01*
X138710839Y-66048390D02*
X138710839Y-66191247D01*
X138710839Y-66191247D02*
X138663220Y-66381723D01*
X138663220Y-66381723D02*
X138615601Y-66476961D01*
X138615601Y-66476961D02*
X138520363Y-66572200D01*
X138520363Y-66572200D02*
X138377506Y-66619819D01*
X138377506Y-66619819D02*
X138282268Y-66619819D01*
X138282268Y-66619819D02*
X138139411Y-66572200D01*
X138139411Y-66572200D02*
X138091792Y-66524580D01*
X138091792Y-66524580D02*
X138091792Y-66191247D01*
X138091792Y-66191247D02*
X138282268Y-66191247D01*
X137663220Y-66619819D02*
X137663220Y-65619819D01*
X137663220Y-65619819D02*
X137091792Y-66619819D01*
X137091792Y-66619819D02*
X137091792Y-65619819D01*
X136615601Y-66619819D02*
X136615601Y-65619819D01*
X136615601Y-65619819D02*
X136377506Y-65619819D01*
X136377506Y-65619819D02*
X136234649Y-65667438D01*
X136234649Y-65667438D02*
X136139411Y-65762676D01*
X136139411Y-65762676D02*
X136091792Y-65857914D01*
X136091792Y-65857914D02*
X136044173Y-66048390D01*
X136044173Y-66048390D02*
X136044173Y-66191247D01*
X136044173Y-66191247D02*
X136091792Y-66381723D01*
X136091792Y-66381723D02*
X136139411Y-66476961D01*
X136139411Y-66476961D02*
X136234649Y-66572200D01*
X136234649Y-66572200D02*
X136377506Y-66619819D01*
X136377506Y-66619819D02*
X136615601Y-66619819D01*
M02*
