%TF.GenerationSoftware,KiCad,Pcbnew,8.0.7-1.fc41*%
%TF.CreationDate,2024-12-31T22:09:06+08:00*%
%TF.ProjectId,mp2236_power_driver,6d703232-3336-45f7-906f-7765725f6472,rev?*%
%TF.SameCoordinates,Original*%
%TF.FileFunction,Soldermask,Top*%
%TF.FilePolarity,Negative*%
%FSLAX46Y46*%
G04 Gerber Fmt 4.6, Leading zero omitted, Abs format (unit mm)*
G04 Created by KiCad (PCBNEW 8.0.7-1.fc41) date 2024-12-31 22:09:06*
%MOMM*%
%LPD*%
G01*
G04 APERTURE LIST*
G04 Aperture macros list*
%AMRoundRect*
0 Rectangle with rounded corners*
0 $1 Rounding radius*
0 $2 $3 $4 $5 $6 $7 $8 $9 X,Y pos of 4 corners*
0 Add a 4 corners polygon primitive as box body*
4,1,4,$2,$3,$4,$5,$6,$7,$8,$9,$2,$3,0*
0 Add four circle primitives for the rounded corners*
1,1,$1+$1,$2,$3*
1,1,$1+$1,$4,$5*
1,1,$1+$1,$6,$7*
1,1,$1+$1,$8,$9*
0 Add four rect primitives between the rounded corners*
20,1,$1+$1,$2,$3,$4,$5,0*
20,1,$1+$1,$4,$5,$6,$7,0*
20,1,$1+$1,$6,$7,$8,$9,0*
20,1,$1+$1,$8,$9,$2,$3,0*%
G04 Aperture macros list end*
%ADD10RoundRect,0.050000X1.750000X-2.250000X1.750000X2.250000X-1.750000X2.250000X-1.750000X-2.250000X0*%
%ADD11RoundRect,0.225000X-0.300000X0.225000X-0.300000X-0.225000X0.300000X-0.225000X0.300000X0.225000X0*%
%ADD12RoundRect,0.245000X-1.505000X0.980000X-1.505000X-0.980000X1.505000X-0.980000X1.505000X0.980000X0*%
%ADD13RoundRect,0.275000X0.275000X0.500000X-0.275000X0.500000X-0.275000X-0.500000X0.275000X-0.500000X0*%
%ADD14RoundRect,0.225000X-0.225000X-0.300000X0.225000X-0.300000X0.225000X0.300000X-0.225000X0.300000X0*%
%ADD15RoundRect,0.250000X-0.275000X0.250000X-0.275000X-0.250000X0.275000X-0.250000X0.275000X0.250000X0*%
%ADD16RoundRect,0.250000X-0.250000X-0.275000X0.250000X-0.275000X0.250000X0.275000X-0.250000X0.275000X0*%
%ADD17RoundRect,0.225000X0.300000X-0.225000X0.300000X0.225000X-0.300000X0.225000X-0.300000X-0.225000X0*%
%ADD18RoundRect,0.243750X-0.281250X0.243750X-0.281250X-0.243750X0.281250X-0.243750X0.281250X0.243750X0*%
%ADD19RoundRect,0.250000X0.275000X-0.250000X0.275000X0.250000X-0.275000X0.250000X-0.275000X-0.250000X0*%
%ADD20RoundRect,0.125000X0.125000X-0.535000X0.125000X0.535000X-0.125000X0.535000X-0.125000X-0.535000X0*%
%ADD21RoundRect,0.263889X0.686111X-1.036111X0.686111X1.036111X-0.686111X1.036111X-0.686111X-1.036111X0*%
%ADD22RoundRect,0.271739X-0.353261X-0.678261X0.353261X-0.678261X0.353261X0.678261X-0.353261X0.678261X0*%
G04 APERTURE END LIST*
D10*
%TO.C,J1*%
X112000000Y-77500000D03*
X112000000Y-62500000D03*
%TD*%
%TO.C,J2*%
X138000000Y-77500000D03*
X138000000Y-62500000D03*
%TD*%
D11*
%TO.C,R3*%
X119533750Y-61800000D03*
X119533750Y-63450000D03*
%TD*%
D12*
%TO.C,L1*%
X130000000Y-65975000D03*
X130000000Y-72025000D03*
%TD*%
D13*
%TO.C,C6*%
X128150000Y-74800000D03*
X126250000Y-74800000D03*
%TD*%
D14*
%TO.C,R4*%
X117637500Y-65200000D03*
X119287500Y-65200000D03*
%TD*%
D13*
%TO.C,C7*%
X128150000Y-76800000D03*
X126250000Y-76800000D03*
%TD*%
D15*
%TO.C,C5*%
X125400000Y-66825000D03*
X125400000Y-68375000D03*
%TD*%
D16*
%TO.C,C3*%
X119825000Y-73600000D03*
X121375000Y-73600000D03*
%TD*%
D13*
%TO.C,C8*%
X128150000Y-78800000D03*
X126250000Y-78800000D03*
%TD*%
D15*
%TO.C,C9*%
X117641250Y-61850000D03*
X117641250Y-63400000D03*
%TD*%
D17*
%TO.C,R6*%
X136550000Y-72075000D03*
X136550000Y-70425000D03*
%TD*%
D18*
%TO.C,LED1*%
X136550000Y-67200000D03*
X136550000Y-68775000D03*
%TD*%
D19*
%TO.C,C4*%
X117387500Y-69775000D03*
X117387500Y-68225000D03*
%TD*%
D14*
%TO.C,R2*%
X123775000Y-65200000D03*
X125425000Y-65200000D03*
%TD*%
D20*
%TO.C,U1*%
X119530000Y-69810000D03*
X120170000Y-69810000D03*
X120830000Y-69810000D03*
X121470000Y-69810000D03*
X121470000Y-67190000D03*
X120830000Y-67190000D03*
X120170000Y-67190000D03*
X119530000Y-67190000D03*
%TD*%
D21*
%TO.C,D1*%
X114500000Y-72500000D03*
X114500000Y-68500000D03*
%TD*%
D22*
%TO.C,C1*%
X118775000Y-78200000D03*
X121725000Y-78200000D03*
%TD*%
D17*
%TO.C,R1*%
X117410000Y-73568750D03*
X117410000Y-71918750D03*
%TD*%
D22*
%TO.C,C2*%
X118775000Y-75700000D03*
X121725000Y-75700000D03*
%TD*%
D17*
%TO.C,R5*%
X122000000Y-65100000D03*
X122000000Y-63450000D03*
%TD*%
M02*
