%TF.GenerationSoftware,KiCad,Pcbnew,8.0.6*%
%TF.CreationDate,2024-12-11T22:55:20+08:00*%
%TF.ProjectId,mp2236_power_driver,6d703232-3336-45f7-906f-7765725f6472,rev?*%
%TF.SameCoordinates,Original*%
%TF.FileFunction,Legend,Top*%
%TF.FilePolarity,Positive*%
%FSLAX46Y46*%
G04 Gerber Fmt 4.6, Leading zero omitted, Abs format (unit mm)*
G04 Created by KiCad (PCBNEW 8.0.6) date 2024-12-11 22:55:20*
%MOMM*%
%LPD*%
G01*
G04 APERTURE LIST*
%ADD10C,0.120000*%
G04 APERTURE END LIST*
D10*
X122040835Y-61519718D02*
X121719718Y-61840835D01*
X123080282Y-62559165D02*
X122759165Y-62880282D01*
X130500000Y-63800000D02*
X130500000Y-71200000D01*
X130500000Y-63800000D02*
X132000000Y-63800000D01*
X130500000Y-71200000D02*
X132000000Y-71200000D01*
X137300000Y-63800000D02*
X135800000Y-63800000D01*
X137300000Y-71200000D02*
X135800000Y-71200000D01*
X137300000Y-71200000D02*
X137300000Y-63800000D01*
X131173752Y-72590000D02*
X129751248Y-72590000D01*
X131173752Y-74410000D02*
X129751248Y-74410000D01*
X131173752Y-77590000D02*
X129751248Y-77590000D01*
X131173752Y-79410000D02*
X129751248Y-79410000D01*
X115972936Y-65515000D02*
X116427064Y-65515000D01*
X115972936Y-66985000D02*
X116427064Y-66985000D01*
X131173752Y-75090000D02*
X129751248Y-75090000D01*
X131173752Y-76910000D02*
X129751248Y-76910000D01*
X127295543Y-64634990D02*
X127665010Y-65004457D01*
X128334990Y-63595543D02*
X128704457Y-63965010D01*
X120988748Y-72765000D02*
X121511252Y-72765000D01*
X120988748Y-74235000D02*
X121511252Y-74235000D01*
X125165010Y-61530898D02*
X124795543Y-61900365D01*
X126204457Y-62570345D02*
X125834990Y-62939812D01*
X117365000Y-69761252D02*
X117365000Y-69238748D01*
X118835000Y-69761252D02*
X118835000Y-69238748D01*
X124519718Y-65340835D02*
X124840835Y-65019718D01*
X125559165Y-66380282D02*
X125880282Y-66059165D01*
X119445000Y-67920000D02*
X119445000Y-67120000D01*
X119445000Y-67920000D02*
X119445000Y-68720000D01*
X122515000Y-68880000D02*
X122515000Y-67120000D01*
X119520000Y-69220000D02*
X119190000Y-69460000D01*
X119190000Y-68980000D01*
X119520000Y-69220000D01*
G36*
X119520000Y-69220000D02*
G01*
X119190000Y-69460000D01*
X119190000Y-68980000D01*
X119520000Y-69220000D01*
G37*
X110250000Y-74810000D02*
X110250000Y-69300000D01*
X110250000Y-74810000D02*
X113550000Y-74810000D01*
X113550000Y-74810000D02*
X113550000Y-69300000D01*
X120951248Y-77590000D02*
X122373752Y-77590000D01*
X120951248Y-79410000D02*
X122373752Y-79410000D01*
X117365000Y-73752064D02*
X117365000Y-73297936D01*
X118835000Y-73752064D02*
X118835000Y-73297936D01*
X120951248Y-75090000D02*
X122373752Y-75090000D01*
X120951248Y-76910000D02*
X122373752Y-76910000D01*
X114465000Y-71752064D02*
X114465000Y-71297936D01*
X115935000Y-71752064D02*
X115935000Y-71297936D01*
M02*
